<svg xmlns="http://www.w3.org/2000/svg" xmlns:xlink="http://www.w3.org/1999/xlink" width="150" zoomAndPan="magnify" viewBox="0 0 112.5 112.499997" height="150" preserveAspectRatio="xMidYMid meet" version="1.0"><defs><g/></defs><g fill="#000000" fill-opacity="1"><g transform="translate(54.160145, 100.785206)"><g><path d="M -3.21875 -0.5 C -2.644531 -0.4375 -2.101562 -0.296875 -1.59375 -0.078125 C -1.082031 0.140625 -0.675781 0.394531 -0.375 0.6875 L -1.09375 1.875 C -1.363281 1.601562 -1.707031 1.375 -2.125 1.1875 C -2.539062 1 -2.960938 0.878906 -3.390625 0.828125 C -3.859375 0.765625 -4.210938 0.789062 -4.453125 0.90625 C -4.703125 1.03125 -4.84375 1.207031 -4.875 1.4375 C -4.894531 1.613281 -4.84375 1.765625 -4.71875 1.890625 C -4.59375 2.023438 -4.425781 2.140625 -4.21875 2.234375 C -4.019531 2.328125 -3.753906 2.4375 -3.421875 2.5625 C -2.867188 2.757812 -2.421875 2.941406 -2.078125 3.109375 C -1.742188 3.273438 -1.472656 3.519531 -1.265625 3.84375 C -1.054688 4.164062 -0.976562 4.570312 -1.03125 5.0625 C -1.082031 5.476562 -1.238281 5.84375 -1.5 6.15625 C -1.769531 6.46875 -2.144531 6.691406 -2.625 6.828125 C -3.101562 6.972656 -3.671875 7.007812 -4.328125 6.9375 C -4.796875 6.882812 -5.242188 6.773438 -5.671875 6.609375 C -6.097656 6.453125 -6.460938 6.25 -6.765625 6 L -6.109375 4.796875 C -5.484375 5.253906 -4.832031 5.519531 -4.15625 5.59375 C -3.695312 5.644531 -3.347656 5.609375 -3.109375 5.484375 C -2.867188 5.367188 -2.734375 5.1875 -2.703125 4.9375 C -2.671875 4.6875 -2.773438 4.488281 -3.015625 4.34375 C -3.265625 4.195312 -3.644531 4.03125 -4.15625 3.84375 C -4.6875 3.644531 -5.117188 3.457031 -5.453125 3.28125 C -5.796875 3.113281 -6.078125 2.875 -6.296875 2.5625 C -6.515625 2.257812 -6.597656 1.863281 -6.546875 1.375 C -6.492188 0.957031 -6.332031 0.59375 -6.0625 0.28125 C -5.800781 -0.0195312 -5.425781 -0.242188 -4.9375 -0.390625 C -4.445312 -0.546875 -3.875 -0.582031 -3.21875 -0.5 Z M -3.21875 -0.5 "/></g></g></g><g fill="#000000" fill-opacity="1"><g transform="translate(47.918824, 100.086825)"><g><path d="M -3.28125 -0.953125 C -2.71875 -0.796875 -2.238281 -0.535156 -1.84375 -0.171875 C -1.457031 0.179688 -1.1875 0.601562 -1.03125 1.09375 C -0.882812 1.582031 -0.882812 2.09375 -1.03125 2.625 C -1.164062 3.15625 -1.421875 3.597656 -1.796875 3.953125 C -2.171875 4.316406 -2.613281 4.554688 -3.125 4.671875 C -3.644531 4.785156 -4.1875 4.765625 -4.75 4.609375 C -5.320312 4.460938 -5.800781 4.210938 -6.1875 3.859375 C -6.570312 3.503906 -6.832031 3.078125 -6.96875 2.578125 C -7.101562 2.085938 -7.101562 1.578125 -6.96875 1.046875 C -6.820312 0.515625 -6.566406 0.0703125 -6.203125 -0.28125 C -5.847656 -0.632812 -5.414062 -0.867188 -4.90625 -0.984375 C -4.394531 -1.109375 -3.851562 -1.097656 -3.28125 -0.953125 Z M -3.609375 0.328125 C -4.003906 0.222656 -4.367188 0.273438 -4.703125 0.484375 C -5.035156 0.691406 -5.265625 1.019531 -5.390625 1.46875 C -5.503906 1.925781 -5.46875 2.320312 -5.28125 2.65625 C -5.09375 3 -4.800781 3.222656 -4.40625 3.328125 C -4 3.441406 -3.628906 3.394531 -3.296875 3.1875 C -2.960938 2.988281 -2.738281 2.660156 -2.625 2.203125 C -2.5 1.753906 -2.53125 1.359375 -2.71875 1.015625 C -2.90625 0.671875 -3.203125 0.441406 -3.609375 0.328125 Z M -3.609375 0.328125 "/></g></g></g><g fill="#000000" fill-opacity="1"><g transform="translate(41.623845, 98.358003)"><g><path d="M -4.359375 4.171875 L -5.6875 3.65625 L -5.21875 2.484375 L -3.921875 2.984375 L -2.390625 -0.9375 L -0.890625 -0.34375 L -2.421875 3.578125 L -1.609375 3.890625 L -2.078125 5.0625 L -2.890625 4.75 L -2.96875 4.984375 C -3.207031 5.578125 -3.566406 5.976562 -4.046875 6.1875 C -4.535156 6.40625 -5.097656 6.382812 -5.734375 6.125 C -5.960938 6.039062 -6.164062 5.929688 -6.34375 5.796875 C -6.53125 5.671875 -6.675781 5.535156 -6.78125 5.390625 L -5.953125 4.453125 C -5.828125 4.640625 -5.648438 4.78125 -5.421875 4.875 C -4.960938 5.050781 -4.632812 4.890625 -4.4375 4.390625 Z M -4.359375 4.171875 "/></g></g></g><g fill="#000000" fill-opacity="1"><g transform="translate(38.076153, 96.992846)"><g><path d="M -4.03125 -1.71875 C -3.820312 -1.75 -3.601562 -1.734375 -3.375 -1.671875 C -3.144531 -1.617188 -2.914062 -1.535156 -2.6875 -1.421875 C -2.082031 -1.117188 -1.695312 -0.734375 -1.53125 -0.265625 C -1.363281 0.191406 -1.425781 0.710938 -1.71875 1.296875 L -2.75 3.359375 L -1.953125 3.75 L -2.5 4.859375 L -3.296875 4.46875 L -3.90625 5.6875 L -5.34375 4.96875 L -4.734375 3.75 L -5.96875 3.125 L -5.421875 2.015625 L -4.1875 2.640625 L -3.15625 0.59375 C -3.0625 0.382812 -3.035156 0.191406 -3.078125 0.015625 C -3.128906 -0.148438 -3.253906 -0.28125 -3.453125 -0.375 C -3.671875 -0.488281 -3.898438 -0.523438 -4.140625 -0.484375 Z M -4.03125 -1.71875 "/></g></g></g><g fill="#000000" fill-opacity="1"><g transform="translate(34.229774, 95.322204)"><g><path d="M -11.15625 -1.015625 L -6.296875 -4.4375 L -5.015625 -3.53125 L -6 0.015625 L -2.921875 -2.0625 L -1.65625 -1.171875 L -3.234375 4.5625 L -4.46875 3.703125 L -3.390625 -0.15625 L -6.671875 2.140625 L -7.796875 1.359375 L -6.71875 -2.515625 L -10 -0.203125 Z M -11.15625 -1.015625 "/></g></g></g><g fill="#000000" fill-opacity="1"><g transform="translate(26.667893, 89.860334)"><g><path d="M -6.140625 1.890625 C -6.753906 1.285156 -7.078125 0.671875 -7.109375 0.046875 C -7.140625 -0.566406 -6.859375 -1.171875 -6.265625 -1.765625 L -4.015625 -4.015625 L -2.953125 -2.953125 L -3.453125 -2.453125 C -2.859375 -2.609375 -2.269531 -2.394531 -1.6875 -1.8125 C -1.382812 -1.507812 -1.171875 -1.191406 -1.046875 -0.859375 C -0.929688 -0.535156 -0.90625 -0.226562 -0.96875 0.0625 C -1.039062 0.363281 -1.191406 0.628906 -1.421875 0.859375 C -1.785156 1.222656 -2.207031 1.375 -2.6875 1.3125 C -3.175781 1.25 -3.707031 0.929688 -4.28125 0.359375 L -5.203125 -0.546875 C -5.453125 -0.296875 -5.566406 -0.03125 -5.546875 0.25 C -5.535156 0.539062 -5.378906 0.835938 -5.078125 1.140625 C -4.867188 1.347656 -4.625 1.519531 -4.34375 1.65625 C -4.070312 1.800781 -3.8125 1.882812 -3.5625 1.90625 L -3.953125 3.109375 C -4.304688 3.054688 -4.675781 2.921875 -5.0625 2.703125 C -5.457031 2.484375 -5.816406 2.210938 -6.140625 1.890625 Z M -2.75 -1.3125 C -2.945312 -1.507812 -3.164062 -1.640625 -3.40625 -1.703125 C -3.644531 -1.765625 -3.890625 -1.738281 -4.140625 -1.625 L -4.546875 -1.21875 L -3.75 -0.4375 C -3.28125 0.03125 -2.890625 0.109375 -2.578125 -0.203125 C -2.429688 -0.347656 -2.375 -0.519531 -2.40625 -0.71875 C -2.4375 -0.914062 -2.550781 -1.113281 -2.75 -1.3125 Z M -2.75 -1.3125 "/></g></g></g><g fill="#000000" fill-opacity="1"><g transform="translate(22.368224, 85.503656)"><g><path d="M -5.234375 1.21875 C -5.554688 1.226562 -5.875 1.148438 -6.1875 0.984375 C -6.5 0.816406 -6.789062 0.5625 -7.0625 0.21875 L -5.890625 -0.71875 C -5.796875 -0.5625 -5.734375 -0.460938 -5.703125 -0.421875 C -5.410156 -0.046875 -5.078125 0.160156 -4.703125 0.203125 C -4.335938 0.242188 -3.945312 0.101562 -3.53125 -0.21875 L -1.46875 -1.859375 L -0.46875 -0.59375 L -4.84375 2.875 L -5.796875 1.671875 Z M -5.234375 1.21875 "/></g></g></g><g fill="#000000" fill-opacity="1"><g transform="translate(19.689529, 82.255871)"><g><path d="M -5.625 -3.8125 C -5.613281 -3.820312 -5.488281 -3.894531 -5.25 -4.03125 L -3.03125 -0.4375 C -2.769531 -0.6875 -2.628906 -0.984375 -2.609375 -1.328125 C -2.585938 -1.679688 -2.6875 -2.035156 -2.90625 -2.390625 C -3.0625 -2.640625 -3.234375 -2.835938 -3.421875 -2.984375 C -3.609375 -3.128906 -3.832031 -3.234375 -4.09375 -3.296875 L -3.765625 -4.515625 C -2.984375 -4.398438 -2.320312 -3.90625 -1.78125 -3.03125 C -1.457031 -2.5 -1.269531 -1.960938 -1.21875 -1.421875 C -1.175781 -0.878906 -1.269531 -0.382812 -1.5 0.0625 C -1.726562 0.519531 -2.078125 0.894531 -2.546875 1.1875 C -3.003906 1.476562 -3.488281 1.628906 -4 1.640625 C -4.519531 1.648438 -5.003906 1.523438 -5.453125 1.265625 C -5.898438 1.015625 -6.273438 0.648438 -6.578125 0.171875 C -6.859375 -0.296875 -7.015625 -0.78125 -7.046875 -1.28125 C -7.078125 -1.789062 -6.96875 -2.265625 -6.71875 -2.703125 C -6.476562 -3.140625 -6.113281 -3.507812 -5.625 -3.8125 Z M -5.53125 -0.484375 C -5.34375 -0.171875 -5.09375 0.03125 -4.78125 0.125 C -4.46875 0.226562 -4.144531 0.210938 -3.8125 0.078125 L -5.265625 -2.28125 C -5.535156 -2.039062 -5.691406 -1.753906 -5.734375 -1.421875 C -5.785156 -1.097656 -5.71875 -0.785156 -5.53125 -0.484375 Z M -5.53125 -0.484375 "/></g></g></g><g fill="#000000" fill-opacity="1"><g transform="translate(16.440601, 76.851216)"><g/></g></g><g fill="#000000" fill-opacity="1"><g transform="translate(15.153395, 74.481021)"><g><path d="M -3.484375 -5.65625 L -2.21875 -6.109375 L -0.296875 -0.8125 L -7.125 1.671875 L -9 -3.5 L -7.734375 -3.96875 L -6.421875 -0.359375 L -4.9375 -0.890625 L -6.09375 -4.0625 L -4.859375 -4.515625 L -3.703125 -1.34375 L -2.125 -1.921875 Z M -3.484375 -5.65625 "/></g></g></g><g fill="#000000" fill-opacity="1"><g transform="translate(12.857347, 68.269048)"><g><path d="M -6.375 -2.9375 C -6.519531 -3.613281 -6.425781 -4.203125 -6.09375 -4.703125 C -5.769531 -5.210938 -5.210938 -5.550781 -4.421875 -5.71875 L -1.28125 -6.34375 L -0.953125 -4.75 L -3.84375 -4.171875 C -4.269531 -4.078125 -4.570312 -3.914062 -4.75 -3.6875 C -4.9375 -3.457031 -4.992188 -3.15625 -4.921875 -2.78125 C -4.835938 -2.382812 -4.648438 -2.09375 -4.359375 -1.90625 C -4.066406 -1.726562 -3.675781 -1.6875 -3.1875 -1.78125 L -0.46875 -2.328125 L -0.140625 -0.734375 L -5.625 0.375 L -5.9375 -1.140625 L -5.296875 -1.28125 C -5.554688 -1.445312 -5.78125 -1.671875 -5.96875 -1.953125 C -6.164062 -2.234375 -6.300781 -2.5625 -6.375 -2.9375 Z M -6.375 -2.9375 "/></g></g></g><g fill="#000000" fill-opacity="1"><g transform="translate(11.480563, 61.590184)"><g><path d="M -5.890625 -6.265625 L -1.234375 -6.46875 C -0.203125 -6.519531 0.570312 -6.289062 1.09375 -5.78125 C 1.613281 -5.269531 1.894531 -4.5 1.9375 -3.46875 C 1.957031 -2.925781 1.914062 -2.410156 1.8125 -1.921875 C 1.707031 -1.429688 1.535156 -1.023438 1.296875 -0.703125 L 0.109375 -1.296875 C 0.285156 -1.523438 0.421875 -1.820312 0.515625 -2.1875 C 0.617188 -2.5625 0.660156 -2.925781 0.640625 -3.28125 C 0.617188 -3.84375 0.476562 -4.25 0.21875 -4.5 C -0.0390625 -4.757812 -0.429688 -4.878906 -0.953125 -4.859375 L -1.1875 -4.84375 C -0.707031 -4.445312 -0.445312 -3.867188 -0.40625 -3.109375 C -0.382812 -2.597656 -0.476562 -2.125 -0.6875 -1.6875 C -0.894531 -1.25 -1.195312 -0.894531 -1.59375 -0.625 C -1.988281 -0.363281 -2.453125 -0.21875 -2.984375 -0.1875 C -3.515625 -0.164062 -3.988281 -0.269531 -4.40625 -0.5 C -4.832031 -0.726562 -5.164062 -1.050781 -5.40625 -1.46875 C -5.65625 -1.882812 -5.789062 -2.347656 -5.8125 -2.859375 C -5.851562 -3.671875 -5.617188 -4.304688 -5.109375 -4.765625 L -5.828125 -4.734375 Z M -1.75 -3.375 C -1.769531 -3.800781 -1.910156 -4.144531 -2.171875 -4.40625 C -2.441406 -4.675781 -2.78125 -4.800781 -3.1875 -4.78125 C -3.59375 -4.757812 -3.914062 -4.601562 -4.15625 -4.3125 C -4.40625 -4.03125 -4.519531 -3.675781 -4.5 -3.25 C -4.476562 -2.820312 -4.332031 -2.472656 -4.0625 -2.203125 C -3.800781 -1.929688 -3.46875 -1.804688 -3.0625 -1.828125 C -2.65625 -1.847656 -2.328125 -2.003906 -2.078125 -2.296875 C -1.835938 -2.585938 -1.726562 -2.945312 -1.75 -3.375 Z M -1.75 -3.375 "/></g></g></g><g fill="#000000" fill-opacity="1"><g transform="translate(11.261137, 54.594733)"><g><path d="M -5.53125 -1.109375 L -5.421875 -2.734375 L 0.15625 -2.375 L 0.046875 -0.75 Z M -6.265625 -1.96875 C -6.273438 -1.664062 -6.375 -1.425781 -6.5625 -1.25 C -6.75 -1.070312 -6.96875 -0.992188 -7.21875 -1.015625 C -7.476562 -1.023438 -7.6875 -1.128906 -7.84375 -1.328125 C -8 -1.535156 -8.070312 -1.789062 -8.0625 -2.09375 C -8.039062 -2.382812 -7.9375 -2.613281 -7.75 -2.78125 C -7.570312 -2.957031 -7.359375 -3.039062 -7.109375 -3.03125 C -6.847656 -3.007812 -6.632812 -2.898438 -6.46875 -2.703125 C -6.3125 -2.503906 -6.242188 -2.257812 -6.265625 -1.96875 Z M -6.265625 -1.96875 "/></g></g></g><g fill="#000000" fill-opacity="1"><g transform="translate(11.317711, 51.716596)"><g><path d="M -4.875 -5.0625 C -4.757812 -5.75 -4.457031 -6.265625 -3.96875 -6.609375 C -3.488281 -6.960938 -2.847656 -7.066406 -2.046875 -6.921875 L 1.109375 -6.375 L 0.828125 -4.765625 L -2.078125 -5.28125 C -2.515625 -5.351562 -2.851562 -5.3125 -3.09375 -5.15625 C -3.34375 -5.007812 -3.5 -4.75 -3.5625 -4.375 C -3.632812 -3.976562 -3.566406 -3.640625 -3.359375 -3.359375 C -3.160156 -3.085938 -2.8125 -2.910156 -2.3125 -2.828125 L 0.40625 -2.34375 L 0.125 -0.734375 L -5.390625 -1.703125 L -5.125 -3.234375 L -4.46875 -3.109375 C -4.65625 -3.359375 -4.785156 -3.65625 -4.859375 -4 C -4.941406 -4.34375 -4.945312 -4.695312 -4.875 -5.0625 Z M -4.875 -5.0625 "/></g></g></g><g fill="#000000" fill-opacity="1"><g transform="translate(12.493535, 44.984721)"><g><path d="M -0.6875 -6.78125 C -0.664062 -6.769531 -0.53125 -6.710938 -0.28125 -6.609375 L -1.609375 -2.609375 C -1.242188 -2.554688 -0.921875 -2.632812 -0.640625 -2.84375 C -0.367188 -3.0625 -0.171875 -3.367188 -0.046875 -3.765625 C 0.046875 -4.035156 0.0859375 -4.289062 0.078125 -4.53125 C 0.078125 -4.769531 0.0195312 -5.015625 -0.09375 -5.265625 L 1.046875 -5.796875 C 1.453125 -5.109375 1.492188 -4.28125 1.171875 -3.3125 C 0.984375 -2.71875 0.695312 -2.226562 0.3125 -1.84375 C -0.0703125 -1.457031 -0.515625 -1.207031 -1.015625 -1.09375 C -1.515625 -0.976562 -2.023438 -1.007812 -2.546875 -1.1875 C -3.054688 -1.351562 -3.484375 -1.628906 -3.828125 -2.015625 C -4.171875 -2.398438 -4.390625 -2.847656 -4.484375 -3.359375 C -4.578125 -3.867188 -4.535156 -4.390625 -4.359375 -4.921875 C -4.179688 -5.453125 -3.910156 -5.890625 -3.546875 -6.234375 C -3.179688 -6.578125 -2.75 -6.796875 -2.25 -6.890625 C -1.75 -6.992188 -1.226562 -6.957031 -0.6875 -6.78125 Z M -3.1875 -4.546875 C -3.300781 -4.203125 -3.296875 -3.878906 -3.171875 -3.578125 C -3.054688 -3.273438 -2.832031 -3.039062 -2.5 -2.875 L -1.640625 -5.5 C -2.003906 -5.539062 -2.328125 -5.476562 -2.609375 -5.3125 C -2.890625 -5.144531 -3.082031 -4.890625 -3.1875 -4.546875 Z M -3.1875 -4.546875 "/></g></g></g><g fill="#000000" fill-opacity="1"><g transform="translate(14.421979, 39.063668)"><g><path d="M 0.25 -6.8125 C 0.269531 -6.800781 0.394531 -6.722656 0.625 -6.578125 L -1.234375 -2.796875 C -0.878906 -2.703125 -0.550781 -2.738281 -0.25 -2.90625 C 0.0507812 -3.082031 0.296875 -3.359375 0.484375 -3.734375 C 0.609375 -3.992188 0.679688 -4.242188 0.703125 -4.484375 C 0.734375 -4.722656 0.707031 -4.96875 0.625 -5.21875 L 1.828125 -5.59375 C 2.140625 -4.863281 2.066406 -4.039062 1.609375 -3.125 C 1.335938 -2.5625 0.984375 -2.117188 0.546875 -1.796875 C 0.117188 -1.472656 -0.347656 -1.285156 -0.859375 -1.234375 C -1.367188 -1.191406 -1.875 -1.289062 -2.375 -1.53125 C -2.851562 -1.769531 -3.234375 -2.101562 -3.515625 -2.53125 C -3.804688 -2.96875 -3.957031 -3.441406 -3.96875 -3.953125 C -3.988281 -4.460938 -3.875 -4.96875 -3.625 -5.46875 C -3.382812 -5.96875 -3.054688 -6.363281 -2.640625 -6.65625 C -2.234375 -6.945312 -1.773438 -7.109375 -1.265625 -7.140625 C -0.765625 -7.171875 -0.257812 -7.0625 0.25 -6.8125 Z M -2.53125 -4.953125 C -2.6875 -4.628906 -2.726562 -4.304688 -2.65625 -3.984375 C -2.582031 -3.671875 -2.390625 -3.40625 -2.078125 -3.1875 L -0.859375 -5.671875 C -1.210938 -5.773438 -1.539062 -5.757812 -1.84375 -5.625 C -2.144531 -5.5 -2.375 -5.273438 -2.53125 -4.953125 Z M -2.53125 -4.953125 "/></g></g></g><g fill="#000000" fill-opacity="1"><g transform="translate(17.232603, 33.458662)"><g><path d="M -2.828125 -4.5625 C -2.941406 -4.863281 -2.96875 -5.191406 -2.90625 -5.546875 C -2.851562 -5.898438 -2.707031 -6.257812 -2.46875 -6.625 L -1.203125 -5.8125 C -1.328125 -5.664062 -1.40625 -5.566406 -1.4375 -5.515625 C -1.6875 -5.128906 -1.769531 -4.753906 -1.6875 -4.390625 C -1.613281 -4.035156 -1.359375 -3.71875 -0.921875 -3.4375 L 1.296875 -2 L 0.40625 -0.625 L -4.296875 -3.65625 L -3.453125 -4.953125 Z M -2.828125 -4.5625 "/></g></g></g><g fill="#000000" fill-opacity="1"><g transform="translate(19.577699, 29.869956)"><g/></g></g><g fill="#000000" fill-opacity="1"><g transform="translate(21.273491, 27.649747)"><g><path d="M 0.953125 -0.984375 C 0.765625 -0.765625 0.535156 -0.644531 0.265625 -0.625 C -0.00390625 -0.601562 -0.25 -0.6875 -0.46875 -0.875 C -0.695312 -1.070312 -0.816406 -1.300781 -0.828125 -1.5625 C -0.847656 -1.832031 -0.765625 -2.078125 -0.578125 -2.296875 C -0.390625 -2.503906 -0.164062 -2.625 0.09375 -2.65625 C 0.363281 -2.6875 0.613281 -2.601562 0.84375 -2.40625 C 1.0625 -2.21875 1.179688 -1.984375 1.203125 -1.703125 C 1.222656 -1.429688 1.140625 -1.191406 0.953125 -0.984375 Z M 0.953125 -0.984375 "/></g></g></g><g fill="#000000" fill-opacity="1"><g transform="translate(22.951272, 25.694343)"><g/></g></g><g fill="#000000" fill-opacity="1"><g transform="translate(24.484637, 23.560003)"><g><path d="M 5.1875 -12.90625 L 7.59375 -5.65625 L 6.15625 -4.578125 L 1.921875 -7.578125 L 3.546875 -2.640625 L 2.109375 -1.5625 L -4.140625 -5.96875 L -2.75 -7 L 1.609375 -3.890625 L -0.046875 -9 L 1.203125 -9.9375 L 5.59375 -6.796875 L 3.890625 -11.9375 Z M 5.1875 -12.90625 "/></g></g></g><g fill="#000000" fill-opacity="1"><g transform="translate(33.930263, 16.814475)"><g><path d="M 4.4375 -5.171875 C 4.445312 -5.148438 4.5 -5.015625 4.59375 -4.765625 L 0.78125 -2.96875 C 0.988281 -2.675781 1.265625 -2.5 1.609375 -2.4375 C 1.960938 -2.375 2.328125 -2.4375 2.703125 -2.625 C 2.960938 -2.75 3.175781 -2.894531 3.34375 -3.0625 C 3.507812 -3.238281 3.640625 -3.453125 3.734375 -3.703125 L 4.90625 -3.25 C 4.695312 -2.46875 4.128906 -1.859375 3.203125 -1.421875 C 2.640625 -1.160156 2.085938 -1.035156 1.546875 -1.046875 C 1.003906 -1.066406 0.519531 -1.21875 0.09375 -1.5 C -0.332031 -1.78125 -0.664062 -2.171875 -0.90625 -2.671875 C -1.132812 -3.160156 -1.222656 -3.660156 -1.171875 -4.171875 C -1.128906 -4.679688 -0.953125 -5.144531 -0.640625 -5.5625 C -0.335938 -5.976562 0.0664062 -6.304688 0.578125 -6.546875 C 1.078125 -6.773438 1.570312 -6.878906 2.0625 -6.859375 C 2.5625 -6.835938 3.019531 -6.679688 3.4375 -6.390625 C 3.851562 -6.097656 4.1875 -5.691406 4.4375 -5.171875 Z M 1.109375 -5.453125 C 0.773438 -5.296875 0.535156 -5.066406 0.390625 -4.765625 C 0.253906 -4.472656 0.238281 -4.148438 0.34375 -3.796875 L 2.84375 -4.984375 C 2.644531 -5.273438 2.382812 -5.460938 2.0625 -5.546875 C 1.738281 -5.640625 1.421875 -5.609375 1.109375 -5.453125 Z M 1.109375 -5.453125 "/></g></g></g><g fill="#000000" fill-opacity="1"><g transform="translate(39.526721, 14.111383)"><g><path d="M 2.21875 -6.609375 C 2.707031 -6.753906 3.191406 -6.773438 3.671875 -6.671875 C 4.148438 -6.566406 4.570312 -6.34375 4.9375 -6 C 5.300781 -5.664062 5.566406 -5.222656 5.734375 -4.671875 C 5.898438 -4.128906 5.925781 -3.613281 5.8125 -3.125 C 5.707031 -2.632812 5.484375 -2.210938 5.140625 -1.859375 C 4.796875 -1.503906 4.378906 -1.253906 3.890625 -1.109375 C 3.160156 -0.878906 2.535156 -0.9375 2.015625 -1.28125 L 2.203125 -0.671875 L 0.71875 -0.21875 L -1.53125 -7.578125 L 0.015625 -8.046875 L 0.796875 -5.46875 C 1.066406 -6.019531 1.539062 -6.398438 2.21875 -6.609375 Z M 3.234375 -2.296875 C 3.640625 -2.410156 3.925781 -2.640625 4.09375 -2.984375 C 4.257812 -3.335938 4.273438 -3.738281 4.140625 -4.1875 C 3.992188 -4.632812 3.753906 -4.953125 3.421875 -5.140625 C 3.097656 -5.335938 2.734375 -5.378906 2.328125 -5.265625 C 1.929688 -5.140625 1.644531 -4.898438 1.46875 -4.546875 C 1.289062 -4.203125 1.273438 -3.804688 1.421875 -3.359375 C 1.554688 -2.910156 1.789062 -2.585938 2.125 -2.390625 C 2.46875 -2.203125 2.835938 -2.171875 3.234375 -2.296875 Z M 3.234375 -2.296875 "/></g></g></g><g fill="#000000" fill-opacity="1"><g transform="translate(46.158012, 12.186003)"><g/></g></g><g fill="#000000" fill-opacity="1"><g transform="translate(48.735381, 11.497087)"><g><path d="M 0.359375 -7.3125 L 3.65625 -7.53125 C 4.4375 -7.582031 5.140625 -7.476562 5.765625 -7.21875 C 6.398438 -6.96875 6.898438 -6.582031 7.265625 -6.0625 C 7.640625 -5.539062 7.851562 -4.914062 7.90625 -4.1875 C 7.957031 -3.46875 7.832031 -2.820312 7.53125 -2.25 C 7.238281 -1.675781 6.796875 -1.21875 6.203125 -0.875 C 5.617188 -0.53125 4.9375 -0.332031 4.15625 -0.28125 L 0.859375 -0.0625 Z M 3.96875 -1.65625 C 4.695312 -1.707031 5.265625 -1.945312 5.671875 -2.375 C 6.078125 -2.8125 6.253906 -3.375 6.203125 -4.0625 C 6.160156 -4.75 5.90625 -5.28125 5.4375 -5.65625 C 4.976562 -6.039062 4.382812 -6.207031 3.65625 -6.15625 L 2.140625 -6.046875 L 2.453125 -1.546875 Z M 3.96875 -1.65625 "/></g></g></g><g fill="#000000" fill-opacity="1"><g transform="translate(56.919489, 10.988952)"><g><path d="M 6.4375 -2.1875 C 6.4375 -2.164062 6.414062 -2.023438 6.375 -1.765625 L 2.171875 -2.140625 C 2.210938 -1.796875 2.363281 -1.507812 2.625 -1.28125 C 2.894531 -1.0625 3.238281 -0.929688 3.65625 -0.890625 C 3.945312 -0.859375 4.207031 -0.875 4.4375 -0.9375 C 4.675781 -1.007812 4.898438 -1.128906 5.109375 -1.296875 L 5.875 -0.296875 C 5.3125 0.265625 4.519531 0.5 3.5 0.40625 C 2.875 0.34375 2.332031 0.171875 1.875 -0.109375 C 1.414062 -0.398438 1.070312 -0.773438 0.84375 -1.234375 C 0.625 -1.691406 0.535156 -2.195312 0.578125 -2.75 C 0.628906 -3.289062 0.804688 -3.769531 1.109375 -4.1875 C 1.410156 -4.601562 1.796875 -4.910156 2.265625 -5.109375 C 2.734375 -5.304688 3.25 -5.382812 3.8125 -5.34375 C 4.363281 -5.289062 4.847656 -5.128906 5.265625 -4.859375 C 5.691406 -4.585938 6.003906 -4.21875 6.203125 -3.75 C 6.410156 -3.28125 6.488281 -2.757812 6.4375 -2.1875 Z M 3.71875 -4.125 C 3.351562 -4.164062 3.035156 -4.09375 2.765625 -3.90625 C 2.503906 -3.71875 2.320312 -3.445312 2.21875 -3.09375 L 4.984375 -2.828125 C 4.953125 -3.191406 4.820312 -3.488281 4.59375 -3.71875 C 4.363281 -3.957031 4.070312 -4.09375 3.71875 -4.125 Z M 3.71875 -4.125 "/></g></g></g><g fill="#000000" fill-opacity="1"><g transform="translate(63.128397, 11.551026)"><g><path d="M 7.40625 -4.03125 L 3.84375 0.890625 L 2.203125 0.515625 L 1.1875 -5.46875 L 2.8125 -5.09375 L 3.46875 -1.03125 L 5.875 -4.390625 Z M 7.40625 -4.03125 "/></g></g></g><g fill="#000000" fill-opacity="1"><g transform="translate(68.877678, 12.846041)"><g><path d="M 6.796875 -0.390625 C 6.785156 -0.378906 6.722656 -0.25 6.609375 0 L 2.671875 -1.484375 C 2.609375 -1.128906 2.675781 -0.804688 2.875 -0.515625 C 3.082031 -0.234375 3.378906 -0.0195312 3.765625 0.125 C 4.035156 0.226562 4.289062 0.28125 4.53125 0.28125 C 4.769531 0.28125 5.015625 0.226562 5.265625 0.125 L 5.75 1.28125 C 5.039062 1.664062 4.207031 1.679688 3.25 1.328125 C 2.664062 1.097656 2.191406 0.785156 1.828125 0.390625 C 1.460938 -0.00390625 1.234375 -0.457031 1.140625 -0.96875 C 1.054688 -1.476562 1.109375 -1.988281 1.296875 -2.5 C 1.492188 -3.007812 1.789062 -3.421875 2.1875 -3.734375 C 2.582031 -4.054688 3.035156 -4.25 3.546875 -4.3125 C 4.066406 -4.382812 4.585938 -4.320312 5.109375 -4.125 C 5.628906 -3.925781 6.050781 -3.640625 6.375 -3.265625 C 6.707031 -2.890625 6.910156 -2.453125 6.984375 -1.953125 C 7.066406 -1.453125 7.003906 -0.929688 6.796875 -0.390625 Z M 4.6875 -3 C 4.34375 -3.125 4.019531 -3.128906 3.71875 -3.015625 C 3.414062 -2.910156 3.164062 -2.695312 2.96875 -2.375 L 5.546875 -1.390625 C 5.617188 -1.742188 5.578125 -2.066406 5.421875 -2.359375 C 5.265625 -2.648438 5.019531 -2.863281 4.6875 -3 Z M 4.6875 -3 "/></g></g></g><g fill="#000000" fill-opacity="1"><g transform="translate(74.746184, 15.148498)"><g><path d="M 4.125 -6.546875 L 5.578125 -5.828125 L 2.125 1.0625 L 0.671875 0.34375 Z M 4.125 -6.546875 "/></g></g></g><g fill="#000000" fill-opacity="1"><g transform="translate(77.37086, 16.340513)"><g><path d="M 2.828125 1.90625 C 2.328125 1.582031 1.945312 1.191406 1.6875 0.734375 C 1.4375 0.285156 1.316406 -0.191406 1.328125 -0.703125 C 1.335938 -1.222656 1.492188 -1.71875 1.796875 -2.1875 C 2.085938 -2.644531 2.460938 -2.984375 2.921875 -3.203125 C 3.378906 -3.429688 3.867188 -3.523438 4.390625 -3.484375 C 4.921875 -3.441406 5.4375 -3.257812 5.9375 -2.9375 C 6.4375 -2.625 6.8125 -2.238281 7.0625 -1.78125 C 7.3125 -1.320312 7.429688 -0.835938 7.421875 -0.328125 C 7.410156 0.179688 7.257812 0.664062 6.96875 1.125 C 6.664062 1.59375 6.285156 1.941406 5.828125 2.171875 C 5.367188 2.398438 4.878906 2.488281 4.359375 2.4375 C 3.835938 2.394531 3.328125 2.21875 2.828125 1.90625 Z M 3.546875 0.796875 C 3.890625 1.015625 4.25 1.078125 4.625 0.984375 C 5 0.890625 5.316406 0.644531 5.578125 0.25 C 5.828125 -0.144531 5.914062 -0.53125 5.84375 -0.90625 C 5.769531 -1.289062 5.5625 -1.59375 5.21875 -1.8125 C 4.863281 -2.039062 4.492188 -2.109375 4.109375 -2.015625 C 3.734375 -1.929688 3.421875 -1.691406 3.171875 -1.296875 C 2.910156 -0.898438 2.816406 -0.507812 2.890625 -0.125 C 2.972656 0.257812 3.191406 0.566406 3.546875 0.796875 Z M 3.546875 0.796875 "/></g></g></g><g fill="#000000" fill-opacity="1"><g transform="translate(82.828379, 19.794441)"><g><path d="M 6.78125 -1.609375 C 7.175781 -1.265625 7.453125 -0.863281 7.609375 -0.40625 C 7.773438 0.0507812 7.804688 0.523438 7.703125 1.015625 C 7.609375 1.503906 7.375 1.960938 7 2.390625 C 6.625 2.828125 6.203125 3.125 5.734375 3.28125 C 5.265625 3.445312 4.789062 3.476562 4.3125 3.375 C 3.832031 3.28125 3.394531 3.0625 3 2.71875 C 2.46875 2.257812 2.195312 1.722656 2.1875 1.109375 L 0.46875 3.078125 L -0.765625 2.015625 L 4.234375 -3.71875 L 5.40625 -2.703125 L 4.984375 -2.21875 C 5.609375 -2.3125 6.207031 -2.109375 6.78125 -1.609375 Z M 3.671875 1.53125 C 3.984375 1.8125 4.328125 1.929688 4.703125 1.890625 C 5.085938 1.847656 5.4375 1.648438 5.75 1.296875 C 6.050781 0.941406 6.195312 0.570312 6.1875 0.1875 C 6.175781 -0.1875 6.015625 -0.515625 5.703125 -0.796875 C 5.378906 -1.066406 5.023438 -1.179688 4.640625 -1.140625 C 4.253906 -1.109375 3.910156 -0.914062 3.609375 -0.5625 C 3.296875 -0.207031 3.144531 0.160156 3.15625 0.546875 C 3.175781 0.929688 3.347656 1.257812 3.671875 1.53125 Z M 3.671875 1.53125 "/></g></g></g><g fill="#000000" fill-opacity="1"><g transform="translate(87.971801, 24.278508)"><g><path d="M 6.15625 2.90625 C 6.144531 2.925781 6.03125 3.015625 5.8125 3.171875 L 3.0625 -0.03125 C 2.832031 0.257812 2.734375 0.578125 2.765625 0.921875 C 2.804688 1.265625 2.960938 1.59375 3.234375 1.90625 C 3.421875 2.125 3.617188 2.289062 3.828125 2.40625 C 4.035156 2.53125 4.28125 2.609375 4.5625 2.640625 L 4.421875 3.890625 C 3.617188 3.878906 2.882812 3.488281 2.21875 2.71875 C 1.8125 2.238281 1.546875 1.738281 1.421875 1.21875 C 1.296875 0.695312 1.3125 0.191406 1.46875 -0.296875 C 1.632812 -0.785156 1.925781 -1.207031 2.34375 -1.5625 C 2.75 -1.914062 3.203125 -2.132812 3.703125 -2.21875 C 4.210938 -2.3125 4.707031 -2.265625 5.1875 -2.078125 C 5.675781 -1.898438 6.101562 -1.597656 6.46875 -1.171875 C 6.820312 -0.753906 7.054688 -0.300781 7.171875 0.1875 C 7.285156 0.675781 7.253906 1.15625 7.078125 1.625 C 6.898438 2.101562 6.59375 2.53125 6.15625 2.90625 Z M 5.5625 -0.359375 C 5.320312 -0.640625 5.039062 -0.804688 4.71875 -0.859375 C 4.394531 -0.910156 4.078125 -0.847656 3.765625 -0.671875 L 5.5625 1.4375 C 5.78125 1.15625 5.890625 0.851562 5.890625 0.53125 C 5.898438 0.207031 5.789062 -0.0859375 5.5625 -0.359375 Z M 5.5625 -0.359375 "/></g></g></g><g fill="#000000" fill-opacity="1"><g transform="translate(92.018785, 29.068876)"><g><path d="M 5.3125 -0.796875 C 5.644531 -0.773438 5.957031 -0.664062 6.25 -0.46875 C 6.550781 -0.28125 6.816406 -0.0078125 7.046875 0.34375 L 5.8125 1.171875 C 5.726562 1.015625 5.671875 0.910156 5.640625 0.859375 C 5.378906 0.472656 5.066406 0.242188 4.703125 0.171875 C 4.347656 0.0976562 3.953125 0.207031 3.515625 0.5 L 1.328125 1.96875 L 0.421875 0.625 L 5.0625 -2.5 L 5.921875 -1.21875 Z M 5.3125 -0.796875 "/></g></g></g><g fill="#000000" fill-opacity="1"><g transform="translate(94.387925, 32.641749)"><g/></g></g><g fill="#000000" fill-opacity="1"><g transform="translate(95.760117, 35.075171)"><g><path d="M 0.53125 1.25 C 0.40625 1 0.382812 0.742188 0.46875 0.484375 C 0.5625 0.234375 0.738281 0.046875 1 -0.078125 C 1.257812 -0.203125 1.515625 -0.21875 1.765625 -0.125 C 2.023438 -0.0390625 2.21875 0.125 2.34375 0.375 C 2.46875 0.632812 2.484375 0.894531 2.390625 1.15625 C 2.304688 1.414062 2.132812 1.609375 1.875 1.734375 C 1.613281 1.859375 1.351562 1.875 1.09375 1.78125 C 0.84375 1.6875 0.65625 1.507812 0.53125 1.25 Z M 0.53125 1.25 "/></g></g></g><g fill="#000000" fill-opacity="1"><g transform="translate(96.8937, 37.389145)"><g/></g></g><g fill="#000000" fill-opacity="1"><g transform="translate(98.074197, 39.788428)"><g><path d="M 0.984375 3.96875 C 0.703125 2.96875 0.757812 2.109375 1.15625 1.390625 C 1.550781 0.679688 2.265625 0.179688 3.296875 -0.109375 L 7.21875 -1.203125 L 7.671875 0.421875 L 3.8125 1.5 C 2.5625 1.851562 2.082031 2.550781 2.375 3.59375 C 2.519531 4.09375 2.78125 4.429688 3.15625 4.609375 C 3.53125 4.796875 4.039062 4.796875 4.6875 4.609375 L 8.546875 3.53125 L 9 5.140625 L 5.078125 6.234375 C 4.046875 6.523438 3.175781 6.46875 2.46875 6.0625 C 1.757812 5.664062 1.265625 4.96875 0.984375 3.96875 Z M 0.984375 3.96875 "/></g></g></g><g fill="#000000" fill-opacity="1"><g transform="translate(100.088974, 47.415257)"><g><path d="M 7.3125 -0.265625 L 7.578125 1.40625 L 0.390625 2.515625 L 0.125 0.84375 Z M 7.3125 -0.265625 "/></g></g></g><g fill="#000000" fill-opacity="1"><g transform="translate(100.603172, 50.585612)"><g><path d="M 8.9375 2.4375 L 9.046875 3.875 L -0.953125 1.171875 L -1.0625 -0.265625 Z M 8.9375 2.4375 "/></g></g></g><g fill="#000000" fill-opacity="1"><g transform="translate(101.031778, 54.338929)"><g><path d="M -0.359375 4.09375 C -0.296875 3.050781 0.0351562 2.253906 0.640625 1.703125 C 1.242188 1.160156 2.082031 0.921875 3.15625 0.984375 L 7.203125 1.203125 L 7.109375 2.890625 L 3.125 2.671875 C 1.820312 2.597656 1.140625 3.101562 1.078125 4.1875 C 1.046875 4.695312 1.175781 5.097656 1.46875 5.390625 C 1.769531 5.679688 2.257812 5.847656 2.9375 5.890625 L 6.921875 6.109375 L 6.828125 7.78125 L 2.78125 7.5625 C 1.707031 7.5 0.898438 7.160156 0.359375 6.546875 C -0.171875 5.941406 -0.410156 5.125 -0.359375 4.09375 Z M -0.359375 4.09375 "/></g></g></g><g fill="#000000" fill-opacity="1"><g transform="translate(100.591369, 62.126383)"><g><path d="M -1.1875 5.296875 L 1.65625 4.15625 L -0.4375 1.921875 L 0 0.03125 L 3.015625 3.46875 L 7.0625 1.765625 L 6.640625 3.625 L 3.96875 4.734375 L 5.90625 6.859375 L 5.5 8.640625 L 2.640625 5.390625 L -1.625 7.203125 Z M -1.1875 5.296875 "/></g></g></g><g fill="#000000" fill-opacity="1"><g transform="translate(98.915875, 69.075101)"><g/></g></g><g fill="#000000" fill-opacity="1"><g transform="translate(98.229636, 71.653407)"><g><path d="M 6.15625 3.953125 L 4.703125 6.9375 C 4.359375 7.632812 3.921875 8.191406 3.390625 8.609375 C 2.859375 9.035156 2.269531 9.273438 1.625 9.328125 C 0.988281 9.390625 0.34375 9.257812 -0.3125 8.9375 C -0.957031 8.613281 -1.453125 8.179688 -1.796875 7.640625 C -2.148438 7.109375 -2.328125 6.5 -2.328125 5.8125 C -2.335938 5.132812 -2.171875 4.445312 -1.828125 3.75 L -0.375 0.765625 Z M -0.546875 4.28125 C -0.867188 4.9375 -0.941406 5.546875 -0.765625 6.109375 C -0.585938 6.671875 -0.1875 7.101562 0.4375 7.40625 C 1.0625 7.707031 1.648438 7.753906 2.203125 7.546875 C 2.753906 7.335938 3.191406 6.90625 3.515625 6.25 L 4.1875 4.875 L 0.125 2.90625 Z M -0.546875 4.28125 "/></g></g></g><g fill="#000000" fill-opacity="1"><g transform="translate(94.592566, 79.005132)"><g><path d="M -1.296875 6.671875 C -1.316406 6.660156 -1.429688 6.570312 -1.640625 6.40625 L 0.78125 2.953125 C 0.445312 2.816406 0.117188 2.804688 -0.203125 2.921875 C -0.523438 3.046875 -0.804688 3.273438 -1.046875 3.609375 C -1.210938 3.847656 -1.328125 4.082031 -1.390625 4.3125 C -1.453125 4.550781 -1.460938 4.800781 -1.421875 5.0625 L -2.6875 5.25 C -2.875 4.46875 -2.671875 3.660156 -2.078125 2.828125 C -1.722656 2.316406 -1.304688 1.929688 -0.828125 1.671875 C -0.347656 1.421875 0.144531 1.3125 0.65625 1.34375 C 1.164062 1.382812 1.644531 1.5625 2.09375 1.875 C 2.539062 2.1875 2.867188 2.578125 3.078125 3.046875 C 3.285156 3.515625 3.359375 4.003906 3.296875 4.515625 C 3.242188 5.023438 3.054688 5.507812 2.734375 5.96875 C 2.410156 6.425781 2.023438 6.765625 1.578125 6.984375 C 1.140625 7.210938 0.664062 7.300781 0.15625 7.25 C -0.34375 7.195312 -0.828125 7.003906 -1.296875 6.671875 Z M 1.71875 5.28125 C 1.9375 4.988281 2.03125 4.675781 2 4.34375 C 1.96875 4.019531 1.828125 3.726562 1.578125 3.46875 L -0.015625 5.734375 C 0.304688 5.878906 0.625 5.910156 0.9375 5.828125 C 1.257812 5.753906 1.519531 5.570312 1.71875 5.28125 Z M 1.71875 5.28125 "/></g></g></g><g fill="#000000" fill-opacity="1"><g transform="translate(90.98271, 84.108818)"><g><path d="M -1.828125 1.890625 C -1.523438 1.546875 -1.175781 1.25 -0.78125 1 C -0.394531 0.75 -0.0546875 0.582031 0.234375 0.5 L 0.75 1.6875 C 0.445312 1.757812 0.140625 1.890625 -0.171875 2.078125 C -0.484375 2.273438 -0.75 2.5 -0.96875 2.75 C -1.4375 3.257812 -1.546875 3.632812 -1.296875 3.875 C -1.179688 3.976562 -1.03125 3.976562 -0.84375 3.875 C -0.664062 3.78125 -0.425781 3.613281 -0.125 3.375 C 0.226562 3.082031 0.535156 2.851562 0.796875 2.6875 C 1.066406 2.53125 1.359375 2.445312 1.671875 2.4375 C 1.992188 2.4375 2.304688 2.578125 2.609375 2.859375 C 2.867188 3.097656 3.03125 3.382812 3.09375 3.71875 C 3.164062 4.050781 3.125 4.410156 2.96875 4.796875 C 2.820312 5.191406 2.566406 5.59375 2.203125 6 C 1.941406 6.28125 1.644531 6.535156 1.3125 6.765625 C 0.976562 7.003906 0.675781 7.164062 0.40625 7.25 L -0.09375 6.078125 C 0.445312 5.890625 0.910156 5.585938 1.296875 5.171875 C 1.535156 4.910156 1.675781 4.679688 1.71875 4.484375 C 1.757812 4.296875 1.722656 4.144531 1.609375 4.03125 C 1.484375 3.925781 1.332031 3.914062 1.15625 4 C 0.976562 4.09375 0.734375 4.269531 0.421875 4.53125 C 0.046875 4.8125 -0.265625 5.03125 -0.515625 5.1875 C -0.773438 5.351562 -1.0625 5.4375 -1.375 5.4375 C -1.6875 5.445312 -1.992188 5.3125 -2.296875 5.03125 C -2.554688 4.800781 -2.710938 4.515625 -2.765625 4.171875 C -2.828125 3.835938 -2.78125 3.472656 -2.625 3.078125 C -2.46875 2.691406 -2.203125 2.296875 -1.828125 1.890625 Z M -1.828125 1.890625 "/></g></g></g><g fill="#000000" fill-opacity="1"><g transform="translate(87.384795, 87.980874)"><g><path d="M 3.21875 4.640625 L 2.015625 5.734375 L -1.75 1.59375 L -0.546875 0.5 Z M 3.140625 5.765625 C 3.359375 5.566406 3.59375 5.46875 3.84375 5.46875 C 4.101562 5.46875 4.316406 5.5625 4.484375 5.75 C 4.660156 5.9375 4.734375 6.15625 4.703125 6.40625 C 4.679688 6.664062 4.5625 6.894531 4.34375 7.09375 C 4.125 7.289062 3.890625 7.390625 3.640625 7.390625 C 3.390625 7.390625 3.179688 7.296875 3.015625 7.109375 C 2.835938 6.921875 2.757812 6.695312 2.78125 6.4375 C 2.800781 6.1875 2.921875 5.960938 3.140625 5.765625 Z M 3.140625 5.765625 "/></g></g></g><g fill="#000000" fill-opacity="1"><g transform="translate(85.343118, 90.009884)"><g><path d="M -1.984375 8.359375 L -4.71875 4.59375 C -5.320312 3.75 -5.554688 2.972656 -5.421875 2.265625 C -5.285156 1.554688 -4.800781 0.898438 -3.96875 0.296875 C -3.53125 -0.0234375 -3.070312 -0.273438 -2.59375 -0.453125 C -2.125 -0.628906 -1.691406 -0.710938 -1.296875 -0.703125 L -1.125 0.609375 C -1.425781 0.597656 -1.757812 0.648438 -2.125 0.765625 C -2.488281 0.890625 -2.8125 1.054688 -3.09375 1.265625 C -3.550781 1.597656 -3.8125 1.941406 -3.875 2.296875 C -3.945312 2.660156 -3.828125 3.050781 -3.515625 3.46875 L -3.390625 3.65625 C -3.328125 3.03125 -2.988281 2.5 -2.375 2.0625 C -1.957031 1.757812 -1.507812 1.570312 -1.03125 1.5 C -0.550781 1.4375 -0.09375 1.492188 0.34375 1.671875 C 0.789062 1.847656 1.171875 2.15625 1.484375 2.59375 C 1.796875 3.019531 1.96875 3.472656 2 3.953125 C 2.039062 4.441406 1.953125 4.898438 1.734375 5.328125 C 1.523438 5.765625 1.210938 6.132812 0.796875 6.4375 C 0.140625 6.90625 -0.515625 7.046875 -1.171875 6.859375 L -0.75 7.453125 Z M -1.859375 3.328125 C -2.203125 3.578125 -2.410156 3.882812 -2.484375 4.25 C -2.554688 4.613281 -2.472656 4.960938 -2.234375 5.296875 C -1.992188 5.617188 -1.6875 5.800781 -1.3125 5.84375 C -0.945312 5.894531 -0.59375 5.796875 -0.25 5.546875 C 0.09375 5.296875 0.304688 4.984375 0.390625 4.609375 C 0.472656 4.234375 0.394531 3.882812 0.15625 3.5625 C -0.0820312 3.226562 -0.390625 3.039062 -0.765625 3 C -1.148438 2.96875 -1.515625 3.078125 -1.859375 3.328125 Z M -1.859375 3.328125 "/></g></g></g><g fill="#000000" fill-opacity="1"><g transform="translate(79.763456, 94.092803)"><g><path d="M -1.09375 6.9375 C -1.707031 7.257812 -2.296875 7.332031 -2.859375 7.15625 C -3.429688 6.976562 -3.90625 6.523438 -4.28125 5.796875 L -5.75 2.953125 L -4.3125 2.21875 L -2.953125 4.84375 C -2.753906 5.226562 -2.519531 5.472656 -2.25 5.578125 C -1.976562 5.691406 -1.675781 5.660156 -1.34375 5.484375 C -0.976562 5.304688 -0.742188 5.050781 -0.640625 4.71875 C -0.546875 4.382812 -0.613281 3.992188 -0.84375 3.546875 L -2.109375 1.09375 L -0.671875 0.34375 L 1.890625 5.3125 L 0.515625 6.015625 L 0.21875 5.4375 C 0.132812 5.75 -0.0195312 6.035156 -0.25 6.296875 C -0.476562 6.554688 -0.757812 6.769531 -1.09375 6.9375 Z M -1.09375 6.9375 "/></g></g></g><g fill="#000000" fill-opacity="1"><g transform="translate(73.689181, 97.222678)"><g><path d="M -4.984375 4.640625 C -4.992188 4.617188 -5.03125 4.476562 -5.09375 4.21875 L -1.09375 2.859375 C -1.28125 2.546875 -1.539062 2.34375 -1.875 2.25 C -2.21875 2.15625 -2.585938 2.175781 -2.984375 2.3125 C -3.253906 2.40625 -3.484375 2.523438 -3.671875 2.671875 C -3.859375 2.828125 -4.015625 3.023438 -4.140625 3.265625 L -5.25 2.671875 C -4.957031 1.929688 -4.328125 1.394531 -3.359375 1.0625 C -2.765625 0.851562 -2.195312 0.785156 -1.65625 0.859375 C -1.113281 0.941406 -0.644531 1.144531 -0.25 1.46875 C 0.132812 1.800781 0.414062 2.226562 0.59375 2.75 C 0.769531 3.269531 0.804688 3.78125 0.703125 4.28125 C 0.597656 4.78125 0.375 5.21875 0.03125 5.59375 C -0.3125 5.96875 -0.753906 6.25 -1.296875 6.4375 C -1.816406 6.613281 -2.320312 6.660156 -2.8125 6.578125 C -3.3125 6.503906 -3.75 6.296875 -4.125 5.953125 C -4.507812 5.617188 -4.796875 5.179688 -4.984375 4.640625 Z M -1.71875 5.296875 C -1.363281 5.179688 -1.101562 4.984375 -0.9375 4.703125 C -0.769531 4.421875 -0.710938 4.097656 -0.765625 3.734375 L -3.390625 4.640625 C -3.210938 4.953125 -2.972656 5.164062 -2.671875 5.28125 C -2.367188 5.40625 -2.050781 5.410156 -1.71875 5.296875 Z M -1.71875 5.296875 "/></g></g></g><g fill="#000000" fill-opacity="1"><g transform="translate(67.749196, 99.212941)"><g><path d="M -1.21875 5.234375 C -1.351562 5.523438 -1.566406 5.773438 -1.859375 5.984375 C -2.148438 6.191406 -2.503906 6.34375 -2.921875 6.4375 L -3.234375 4.96875 C -3.054688 4.957031 -2.9375 4.941406 -2.875 4.921875 C -2.414062 4.828125 -2.085938 4.625 -1.890625 4.3125 C -1.703125 4 -1.660156 3.585938 -1.765625 3.078125 L -2.328125 0.5 L -0.734375 0.15625 L 0.453125 5.625 L -1.0625 5.953125 Z M -1.21875 5.234375 "/></g></g></g><g fill="#000000" fill-opacity="1"><g transform="translate(63.551194, 100.098806)"><g/></g></g><g fill="#000000" fill-opacity="1"><g transform="translate(60.78436, 100.475574)"><g><path d="M -1.359375 0.03125 C -1.078125 0 -0.832031 0.0703125 -0.625 0.25 C -0.425781 0.4375 -0.316406 0.675781 -0.296875 0.96875 C -0.265625 1.257812 -0.335938 1.503906 -0.515625 1.703125 C -0.703125 1.898438 -0.9375 2.015625 -1.21875 2.046875 C -1.5 2.066406 -1.742188 1.988281 -1.953125 1.8125 C -2.160156 1.632812 -2.28125 1.398438 -2.3125 1.109375 C -2.332031 0.816406 -2.25 0.566406 -2.0625 0.359375 C -1.875 0.160156 -1.640625 0.0507812 -1.359375 0.03125 Z M -1.359375 0.03125 "/></g></g></g></svg>