<svg xmlns="http://www.w3.org/2000/svg" xmlns:xlink="http://www.w3.org/1999/xlink" width="200" zoomAndPan="magnify" viewBox="0 0 150 149.999998" height="200" preserveAspectRatio="xMidYMid meet" version="1.0"><defs><g/></defs><g fill="#000000" fill-opacity="1"><g transform="translate(72.633521, 135.095242)"><g><path d="M -4.484375 -0.703125 C -3.691406 -0.609375 -2.9375 -0.40625 -2.21875 -0.09375 C -1.507812 0.207031 -0.941406 0.554688 -0.515625 0.953125 L -1.515625 2.609375 C -1.910156 2.242188 -2.394531 1.929688 -2.96875 1.671875 C -3.539062 1.410156 -4.125 1.242188 -4.71875 1.171875 C -5.382812 1.097656 -5.882812 1.140625 -6.21875 1.296875 C -6.5625 1.453125 -6.753906 1.691406 -6.796875 2.015625 C -6.828125 2.253906 -6.753906 2.460938 -6.578125 2.640625 C -6.398438 2.828125 -6.171875 2.984375 -5.890625 3.109375 C -5.617188 3.234375 -5.242188 3.390625 -4.765625 3.578125 C -4.015625 3.847656 -3.40625 4.101562 -2.9375 4.34375 C -2.46875 4.59375 -2.082031 4.929688 -1.78125 5.359375 C -1.476562 5.796875 -1.363281 6.351562 -1.4375 7.03125 C -1.507812 7.613281 -1.726562 8.125 -2.09375 8.5625 C -2.46875 9.007812 -2.988281 9.332031 -3.65625 9.53125 C -4.332031 9.738281 -5.132812 9.785156 -6.0625 9.671875 C -6.695312 9.597656 -7.316406 9.445312 -7.921875 9.21875 C -8.523438 9 -9.03125 8.71875 -9.4375 8.375 L -8.53125 6.703125 C -7.65625 7.328125 -6.753906 7.695312 -5.828125 7.8125 C -5.171875 7.882812 -4.671875 7.832031 -4.328125 7.65625 C -3.992188 7.488281 -3.804688 7.234375 -3.765625 6.890625 C -3.722656 6.535156 -3.875 6.253906 -4.21875 6.046875 C -4.5625 5.835938 -5.09375 5.609375 -5.8125 5.359375 C -6.5625 5.085938 -7.171875 4.832031 -7.640625 4.59375 C -8.109375 4.351562 -8.492188 4.015625 -8.796875 3.578125 C -9.097656 3.140625 -9.207031 2.585938 -9.125 1.921875 C -9.0625 1.347656 -8.84375 0.84375 -8.46875 0.40625 C -8.09375 -0.03125 -7.566406 -0.347656 -6.890625 -0.546875 C -6.210938 -0.753906 -5.410156 -0.804688 -4.484375 -0.703125 Z M -4.484375 -0.703125 "/></g></g></g><g fill="#000000" fill-opacity="1"><g transform="translate(64.100875, 134.149146)"><g><path d="M -4.5625 -1.328125 C -3.769531 -1.117188 -3.101562 -0.765625 -2.5625 -0.265625 C -2.019531 0.222656 -1.648438 0.804688 -1.453125 1.484375 C -1.253906 2.171875 -1.253906 2.894531 -1.453125 3.65625 C -1.648438 4.394531 -2.003906 5.007812 -2.515625 5.5 C -3.023438 6 -3.640625 6.332031 -4.359375 6.5 C -5.078125 6.664062 -5.832031 6.644531 -6.625 6.4375 C -7.414062 6.226562 -8.082031 5.875 -8.625 5.375 C -9.164062 4.875 -9.535156 4.28125 -9.734375 3.59375 C -9.929688 2.914062 -9.929688 2.207031 -9.734375 1.46875 C -9.535156 0.707031 -9.179688 0.0820312 -8.671875 -0.40625 C -8.160156 -0.90625 -7.546875 -1.234375 -6.828125 -1.390625 C -6.109375 -1.554688 -5.351562 -1.535156 -4.5625 -1.328125 Z M -5.03125 0.453125 C -5.59375 0.304688 -6.109375 0.375 -6.578125 0.65625 C -7.046875 0.945312 -7.363281 1.410156 -7.53125 2.046875 C -7.695312 2.679688 -7.644531 3.234375 -7.375 3.703125 C -7.113281 4.179688 -6.703125 4.492188 -6.140625 4.640625 C -5.585938 4.785156 -5.078125 4.71875 -4.609375 4.4375 C -4.140625 4.164062 -3.820312 3.710938 -3.65625 3.078125 C -3.488281 2.441406 -3.535156 1.878906 -3.796875 1.390625 C -4.066406 0.910156 -4.476562 0.597656 -5.03125 0.453125 Z M -5.03125 0.453125 "/></g></g></g><g fill="#000000" fill-opacity="1"><g transform="translate(55.466712, 131.778428)"><g><path d="M -6.0625 5.8125 L -7.9375 5.078125 L -7.3125 3.46875 L -5.484375 4.171875 L -3.328125 -1.3125 L -1.21875 -0.484375 L -3.375 5 L -2.265625 5.4375 L -2.890625 7.046875 L -4 6.609375 L -4.125 6.9375 C -4.457031 7.769531 -4.960938 8.332031 -5.640625 8.625 C -6.328125 8.914062 -7.113281 8.890625 -8 8.546875 C -8.320312 8.421875 -8.609375 8.269531 -8.859375 8.09375 C -9.117188 7.914062 -9.316406 7.722656 -9.453125 7.515625 L -8.3125 6.203125 C -8.132812 6.472656 -7.878906 6.675781 -7.546875 6.8125 C -6.910156 7.0625 -6.457031 6.832031 -6.1875 6.125 Z M -6.0625 5.8125 "/></g></g></g><g fill="#000000" fill-opacity="1"><g transform="translate(50.637013, 129.921593)"><g><path d="M -5.609375 -2.390625 C -5.328125 -2.429688 -5.023438 -2.410156 -4.703125 -2.328125 C -4.378906 -2.253906 -4.054688 -2.140625 -3.734375 -1.984375 C -2.910156 -1.566406 -2.375 -1.035156 -2.125 -0.390625 C -1.882812 0.253906 -1.96875 0.988281 -2.375 1.8125 L -3.8125 4.671875 L -2.734375 5.21875 L -3.5 6.765625 L -4.578125 6.21875 L -5.4375 7.921875 L -7.46875 6.921875 L -6.609375 5.21875 L -8.359375 4.34375 L -7.59375 2.796875 L -5.84375 3.671875 L -4.421875 0.84375 C -4.273438 0.539062 -4.234375 0.269531 -4.296875 0.03125 C -4.367188 -0.195312 -4.539062 -0.378906 -4.8125 -0.515625 C -5.144531 -0.679688 -5.460938 -0.738281 -5.765625 -0.6875 Z M -5.609375 -2.390625 "/></g></g></g><g fill="#000000" fill-opacity="1"><g transform="translate(45.461916, 127.697563)"><g><path d="M -15.59375 -1.453125 L -8.78125 -6.203125 L -7 -4.9375 L -8.359375 0.03125 L -4.078125 -2.890625 L -2.3125 -1.625 L -4.515625 6.359375 L -6.25 5.140625 L -4.703125 -0.234375 L -9.328125 2.96875 L -10.875 1.875 L -9.359375 -3.515625 L -13.953125 -0.296875 Z M -15.59375 -1.453125 "/></g></g></g><g fill="#000000" fill-opacity="1"><g transform="translate(35.097279, 120.222443)"><g><path d="M -8.5625 2.625 C -9.414062 1.769531 -9.867188 0.910156 -9.921875 0.046875 C -9.972656 -0.816406 -9.59375 -1.660156 -8.78125 -2.484375 L -5.625 -5.625 L -4.125 -4.125 L -4.8125 -3.4375 C -4 -3.644531 -3.179688 -3.335938 -2.359375 -2.515625 C -1.929688 -2.085938 -1.632812 -1.644531 -1.46875 -1.1875 C -1.3125 -0.738281 -1.273438 -0.304688 -1.359375 0.109375 C -1.441406 0.523438 -1.644531 0.894531 -1.96875 1.21875 C -2.476562 1.726562 -3.070312 1.9375 -3.75 1.84375 C -4.425781 1.75 -5.171875 1.296875 -5.984375 0.484375 L -7.25 -0.78125 C -7.601562 -0.425781 -7.765625 -0.0507812 -7.734375 0.34375 C -7.710938 0.75 -7.492188 1.160156 -7.078125 1.578125 C -6.785156 1.867188 -6.453125 2.109375 -6.078125 2.296875 C -5.703125 2.492188 -5.332031 2.613281 -4.96875 2.65625 L -5.5 4.34375 C -6.019531 4.257812 -6.550781 4.0625 -7.09375 3.75 C -7.632812 3.445312 -8.125 3.070312 -8.5625 2.625 Z M -3.84375 -1.84375 C -4.113281 -2.113281 -4.414062 -2.289062 -4.75 -2.375 C -5.09375 -2.46875 -5.429688 -2.429688 -5.765625 -2.265625 L -6.328125 -1.703125 L -5.234375 -0.609375 C -4.578125 0.046875 -4.03125 0.15625 -3.59375 -0.28125 C -3.382812 -0.488281 -3.300781 -0.726562 -3.34375 -1 C -3.394531 -1.28125 -3.5625 -1.5625 -3.84375 -1.84375 Z M -3.84375 -1.84375 "/></g></g></g><g fill="#000000" fill-opacity="1"><g transform="translate(29.194621, 114.252745)"><g><path d="M -7.28125 1.6875 C -7.75 1.71875 -8.203125 1.613281 -8.640625 1.375 C -9.078125 1.132812 -9.484375 0.78125 -9.859375 0.3125 L -8.21875 -0.984375 C -8.082031 -0.785156 -7.988281 -0.648438 -7.9375 -0.578125 C -7.53125 -0.0664062 -7.070312 0.210938 -6.5625 0.265625 C -6.050781 0.328125 -5.515625 0.140625 -4.953125 -0.296875 L -2.0625 -2.59375 L -0.65625 -0.828125 L -6.765625 4.015625 L -8.09375 2.328125 Z M -7.28125 1.6875 "/></g></g></g><g fill="#000000" fill-opacity="1"><g transform="translate(25.558193, 109.854309)"><g><path d="M -7.859375 -5.359375 C -7.828125 -5.367188 -7.648438 -5.457031 -7.328125 -5.625 L -4.21875 -0.609375 C -3.863281 -0.960938 -3.671875 -1.378906 -3.640625 -1.859375 C -3.617188 -2.347656 -3.757812 -2.84375 -4.0625 -3.34375 C -4.28125 -3.6875 -4.519531 -3.960938 -4.78125 -4.171875 C -5.050781 -4.378906 -5.367188 -4.523438 -5.734375 -4.609375 L -5.25 -6.328125 C -4.144531 -6.140625 -3.226562 -5.445312 -2.5 -4.25 C -2.03125 -3.5 -1.757812 -2.742188 -1.6875 -1.984375 C -1.625 -1.234375 -1.753906 -0.546875 -2.078125 0.078125 C -2.410156 0.710938 -2.910156 1.234375 -3.578125 1.640625 C -4.222656 2.046875 -4.898438 2.257812 -5.609375 2.28125 C -6.316406 2.300781 -6.984375 2.128906 -7.609375 1.765625 C -8.234375 1.398438 -8.753906 0.882812 -9.171875 0.21875 C -9.566406 -0.425781 -9.785156 -1.097656 -9.828125 -1.796875 C -9.878906 -2.492188 -9.734375 -3.15625 -9.390625 -3.78125 C -9.054688 -4.40625 -8.546875 -4.929688 -7.859375 -5.359375 Z M -7.71875 -0.6875 C -7.445312 -0.25 -7.097656 0.0390625 -6.671875 0.1875 C -6.242188 0.332031 -5.789062 0.300781 -5.3125 0.09375 L -7.328125 -3.15625 C -7.722656 -2.84375 -7.953125 -2.457031 -8.015625 -2 C -8.078125 -1.550781 -7.976562 -1.113281 -7.71875 -0.6875 Z M -7.71875 -0.6875 "/></g></g></g><g fill="#000000" fill-opacity="1"><g transform="translate(21.095929, 102.431515)"><g/></g></g><g fill="#000000" fill-opacity="1"><g transform="translate(19.358893, 99.258425)"><g><path d="M -4.875 -7.875 L -3.09375 -8.515625 L -0.40625 -1.125 L -9.953125 2.34375 L -12.578125 -4.875 L -10.796875 -5.53125 L -8.96875 -0.5 L -6.90625 -1.25 L -8.515625 -5.6875 L -6.796875 -6.3125 L -5.1875 -1.875 L -2.984375 -2.671875 Z M -4.875 -7.875 "/></g></g></g><g fill="#000000" fill-opacity="1"><g transform="translate(16.214115, 90.787743)"><g><path d="M -8.90625 -4.109375 C -9.09375 -5.054688 -8.957031 -5.878906 -8.5 -6.578125 C -8.050781 -7.273438 -7.269531 -7.738281 -6.15625 -7.96875 L -1.78125 -8.84375 L -1.328125 -6.625 L -5.375 -5.8125 C -5.976562 -5.6875 -6.398438 -5.460938 -6.640625 -5.140625 C -6.890625 -4.816406 -6.960938 -4.40625 -6.859375 -3.90625 C -6.753906 -3.351562 -6.492188 -2.941406 -6.078125 -2.671875 C -5.671875 -2.410156 -5.125 -2.347656 -4.4375 -2.484375 L -0.65625 -3.25 L -0.203125 -1.03125 L -7.84375 0.5 L -8.265625 -1.609375 L -7.375 -1.78125 C -7.757812 -2.007812 -8.082031 -2.320312 -8.34375 -2.71875 C -8.613281 -3.125 -8.800781 -3.585938 -8.90625 -4.109375 Z M -8.90625 -4.109375 "/></g></g></g><g fill="#000000" fill-opacity="1"><g transform="translate(14.321363, 81.676041)"><g><path d="M -8.1875 -8.71875 L -1.71875 -9.015625 C -0.28125 -9.078125 0.796875 -8.753906 1.515625 -8.046875 C 2.242188 -7.335938 2.640625 -6.269531 2.703125 -4.84375 C 2.742188 -4.082031 2.6875 -3.359375 2.53125 -2.671875 C 2.382812 -1.992188 2.144531 -1.425781 1.8125 -0.96875 L 0.15625 -1.796875 C 0.40625 -2.140625 0.597656 -2.5625 0.734375 -3.0625 C 0.867188 -3.570312 0.925781 -4.078125 0.90625 -4.578125 C 0.863281 -5.367188 0.660156 -5.941406 0.296875 -6.296875 C -0.0664062 -6.648438 -0.609375 -6.8125 -1.328125 -6.78125 L -1.65625 -6.765625 C -0.976562 -6.203125 -0.617188 -5.394531 -0.578125 -4.34375 C -0.546875 -3.632812 -0.671875 -2.972656 -0.953125 -2.359375 C -1.234375 -1.753906 -1.648438 -1.265625 -2.203125 -0.890625 C -2.765625 -0.515625 -3.414062 -0.3125 -4.15625 -0.28125 C -4.90625 -0.25 -5.570312 -0.394531 -6.15625 -0.71875 C -6.738281 -1.039062 -7.203125 -1.488281 -7.546875 -2.0625 C -7.890625 -2.644531 -8.078125 -3.289062 -8.109375 -4 C -8.160156 -5.132812 -7.828125 -6.015625 -7.109375 -6.640625 L -8.09375 -6.59375 Z M -2.453125 -4.71875 C -2.484375 -5.320312 -2.679688 -5.800781 -3.046875 -6.15625 C -3.421875 -6.519531 -3.890625 -6.691406 -4.453125 -6.671875 C -5.023438 -6.640625 -5.476562 -6.425781 -5.8125 -6.03125 C -6.15625 -5.632812 -6.3125 -5.132812 -6.28125 -4.53125 C -6.25 -3.9375 -6.046875 -3.453125 -5.671875 -3.078125 C -5.304688 -2.703125 -4.835938 -2.53125 -4.265625 -2.5625 C -3.703125 -2.582031 -3.25 -2.796875 -2.90625 -3.203125 C -2.570312 -3.617188 -2.421875 -4.125 -2.453125 -4.71875 Z M -2.453125 -4.71875 "/></g></g></g><g fill="#000000" fill-opacity="1"><g transform="translate(14.017333, 72.065056)"><g><path d="M -7.71875 -1.546875 L -7.5625 -3.8125 L 0.21875 -3.3125 L 0.0625 -1.046875 Z M -8.734375 -2.765625 C -8.765625 -2.347656 -8.90625 -2.015625 -9.15625 -1.765625 C -9.414062 -1.523438 -9.726562 -1.414062 -10.09375 -1.4375 C -10.445312 -1.457031 -10.734375 -1.601562 -10.953125 -1.875 C -11.171875 -2.15625 -11.265625 -2.503906 -11.234375 -2.921875 C -11.203125 -3.335938 -11.066406 -3.664062 -10.828125 -3.90625 C -10.585938 -4.15625 -10.289062 -4.269531 -9.9375 -4.25 C -9.5625 -4.226562 -9.257812 -4.078125 -9.03125 -3.796875 C -8.800781 -3.523438 -8.703125 -3.179688 -8.734375 -2.765625 Z M -8.734375 -2.765625 "/></g></g></g><g fill="#000000" fill-opacity="1"><g transform="translate(14.08206, 68.202781)"><g><path d="M -6.796875 -7.0625 C -6.628906 -8.019531 -6.207031 -8.738281 -5.53125 -9.21875 C -4.851562 -9.695312 -3.957031 -9.835938 -2.84375 -9.640625 L 1.5625 -8.875 L 1.171875 -6.65625 L -2.890625 -7.375 C -3.492188 -7.476562 -3.96875 -7.421875 -4.3125 -7.203125 C -4.65625 -6.984375 -4.875 -6.625 -4.96875 -6.125 C -5.0625 -5.570312 -4.960938 -5.097656 -4.671875 -4.703125 C -4.390625 -4.304688 -3.90625 -4.050781 -3.21875 -3.9375 L 0.578125 -3.265625 L 0.1875 -1.03125 L -7.5 -2.375 L -7.140625 -4.5 L -6.234375 -4.34375 C -6.503906 -4.695312 -6.6875 -5.109375 -6.78125 -5.578125 C -6.882812 -6.046875 -6.890625 -6.539062 -6.796875 -7.0625 Z M -6.796875 -7.0625 "/></g></g></g><g fill="#000000" fill-opacity="1"><g transform="translate(15.677512, 59.005492)"><g><path d="M -0.953125 -9.46875 C -0.929688 -9.457031 -0.742188 -9.378906 -0.390625 -9.234375 L -2.234375 -3.625 C -1.742188 -3.582031 -1.304688 -3.703125 -0.921875 -3.984375 C -0.535156 -4.273438 -0.25 -4.695312 -0.0625 -5.25 C 0.0625 -5.632812 0.117188 -5.992188 0.109375 -6.328125 C 0.0976562 -6.671875 0.0078125 -7.015625 -0.15625 -7.359375 L 1.46875 -8.09375 C 2.03125 -7.125 2.09375 -5.972656 1.65625 -4.640625 C 1.375 -3.796875 0.960938 -3.101562 0.421875 -2.5625 C -0.109375 -2.03125 -0.71875 -1.6875 -1.40625 -1.53125 C -2.101562 -1.375 -2.820312 -1.414062 -3.5625 -1.65625 C -4.289062 -1.894531 -4.890625 -2.28125 -5.359375 -2.8125 C -5.828125 -3.351562 -6.125 -3.976562 -6.25 -4.6875 C -6.375 -5.40625 -6.3125 -6.132812 -6.0625 -6.875 C -5.820312 -7.59375 -5.453125 -8.191406 -4.953125 -8.671875 C -4.453125 -9.160156 -3.851562 -9.476562 -3.15625 -9.625 C -2.46875 -9.769531 -1.734375 -9.71875 -0.953125 -9.46875 Z M -4.4375 -6.34375 C -4.59375 -5.851562 -4.585938 -5.398438 -4.421875 -4.984375 C -4.265625 -4.566406 -3.953125 -4.242188 -3.484375 -4.015625 L -2.296875 -7.65625 C -2.796875 -7.738281 -3.238281 -7.660156 -3.625 -7.421875 C -4.007812 -7.179688 -4.28125 -6.820312 -4.4375 -6.34375 Z M -4.4375 -6.34375 "/></g></g></g><g fill="#000000" fill-opacity="1"><g transform="translate(18.298278, 50.922192)"><g><path d="M 0.375 -9.515625 C 0.394531 -9.492188 0.566406 -9.382812 0.890625 -9.1875 L -1.71875 -3.890625 C -1.226562 -3.785156 -0.769531 -3.847656 -0.34375 -4.078125 C 0.0703125 -4.304688 0.40625 -4.679688 0.65625 -5.203125 C 0.84375 -5.566406 0.953125 -5.914062 0.984375 -6.25 C 1.023438 -6.59375 0.984375 -6.941406 0.859375 -7.296875 L 2.578125 -7.796875 C 2.992188 -6.773438 2.890625 -5.632812 2.265625 -4.375 C 1.878906 -3.570312 1.382812 -2.941406 0.78125 -2.484375 C 0.175781 -2.035156 -0.476562 -1.78125 -1.1875 -1.71875 C -1.894531 -1.65625 -2.597656 -1.796875 -3.296875 -2.140625 C -3.984375 -2.484375 -4.519531 -2.953125 -4.90625 -3.546875 C -5.300781 -4.140625 -5.507812 -4.796875 -5.53125 -5.515625 C -5.5625 -6.234375 -5.40625 -6.945312 -5.0625 -7.65625 C -4.726562 -8.332031 -4.273438 -8.875 -3.703125 -9.28125 C -3.128906 -9.695312 -2.488281 -9.925781 -1.78125 -9.96875 C -1.070312 -10.019531 -0.351562 -9.867188 0.375 -9.515625 Z M -3.515625 -6.890625 C -3.734375 -6.429688 -3.789062 -5.984375 -3.6875 -5.546875 C -3.59375 -5.109375 -3.332031 -4.742188 -2.90625 -4.453125 L -1.21875 -7.890625 C -1.695312 -8.054688 -2.144531 -8.046875 -2.5625 -7.859375 C -2.976562 -7.671875 -3.296875 -7.347656 -3.515625 -6.890625 Z M -3.515625 -6.890625 "/></g></g></g><g fill="#000000" fill-opacity="1"><g transform="translate(22.141363, 43.239612)"><g><path d="M -3.953125 -6.359375 C -4.128906 -6.796875 -4.171875 -7.257812 -4.078125 -7.75 C -3.992188 -8.238281 -3.785156 -8.738281 -3.453125 -9.25 L -1.6875 -8.125 C -1.84375 -7.914062 -1.945312 -7.773438 -2 -7.703125 C -2.351562 -7.160156 -2.472656 -6.632812 -2.359375 -6.125 C -2.253906 -5.625 -1.898438 -5.175781 -1.296875 -4.78125 L 1.796875 -2.78125 L 0.5625 -0.875 L -5.984375 -5.109375 L -4.8125 -6.921875 Z M -3.953125 -6.359375 "/></g></g></g><g fill="#000000" fill-opacity="1"><g transform="translate(25.354214, 38.324475)"><g/></g></g><g fill="#000000" fill-opacity="1"><g transform="translate(27.668398, 35.290413)"><g><path d="M 1.328125 -1.359375 C 1.066406 -1.066406 0.742188 -0.90625 0.359375 -0.875 C -0.015625 -0.84375 -0.359375 -0.960938 -0.671875 -1.234375 C -0.972656 -1.492188 -1.132812 -1.8125 -1.15625 -2.1875 C -1.175781 -2.570312 -1.054688 -2.910156 -0.796875 -3.203125 C -0.535156 -3.503906 -0.21875 -3.671875 0.15625 -3.703125 C 0.53125 -3.734375 0.867188 -3.617188 1.171875 -3.359375 C 1.484375 -3.085938 1.648438 -2.757812 1.671875 -2.375 C 1.703125 -2 1.585938 -1.660156 1.328125 -1.359375 Z M 1.328125 -1.359375 "/></g></g></g><g fill="#000000" fill-opacity="1"><g transform="translate(29.954383, 32.624695)"><g/></g></g><g fill="#000000" fill-opacity="1"><g transform="translate(31.925683, 29.790956)"><g><path d="M 7.21875 -18.03125 L 10.609375 -7.890625 L 8.59375 -6.390625 L 2.6875 -10.5625 L 4.9375 -3.671875 L 2.9375 -2.1875 L -5.8125 -8.34375 L -3.859375 -9.796875 L 2.25 -5.4375 L -0.09375 -12.59375 L 1.65625 -13.890625 L 7.8125 -9.5 L 5.40625 -16.6875 Z M 7.21875 -18.03125 "/></g></g></g><g fill="#000000" fill-opacity="1"><g transform="translate(44.875508, 20.522589)"><g><path d="M 6.203125 -7.21875 C 6.210938 -7.1875 6.285156 -7 6.421875 -6.65625 L 1.078125 -4.125 C 1.390625 -3.726562 1.78125 -3.488281 2.25 -3.40625 C 2.726562 -3.332031 3.226562 -3.421875 3.75 -3.671875 C 4.125 -3.847656 4.429688 -4.054688 4.671875 -4.296875 C 4.910156 -4.535156 5.09375 -4.832031 5.21875 -5.1875 L 6.875 -4.515625 C 6.5625 -3.453125 5.769531 -2.617188 4.5 -2.015625 C 3.695312 -1.628906 2.914062 -1.441406 2.15625 -1.453125 C 1.394531 -1.472656 0.71875 -1.679688 0.125 -2.078125 C -0.457031 -2.472656 -0.914062 -3.023438 -1.25 -3.734375 C -1.570312 -4.421875 -1.703125 -5.117188 -1.640625 -5.828125 C -1.585938 -6.535156 -1.34375 -7.179688 -0.90625 -7.765625 C -0.476562 -8.347656 0.0859375 -8.804688 0.796875 -9.140625 C 1.484375 -9.460938 2.175781 -9.609375 2.875 -9.578125 C 3.570312 -9.546875 4.210938 -9.328125 4.796875 -8.921875 C 5.390625 -8.523438 5.859375 -7.957031 6.203125 -7.21875 Z M 1.53125 -7.59375 C 1.070312 -7.375 0.75 -7.054688 0.5625 -6.640625 C 0.375 -6.234375 0.351562 -5.785156 0.5 -5.296875 L 3.96875 -6.9375 C 3.675781 -7.351562 3.3125 -7.617188 2.875 -7.734375 C 2.4375 -7.859375 1.988281 -7.8125 1.53125 -7.59375 Z M 1.53125 -7.59375 "/></g></g></g><g fill="#000000" fill-opacity="1"><g transform="translate(52.497368, 16.825187)"><g><path d="M 3.09375 -9.234375 C 3.789062 -9.441406 4.46875 -9.472656 5.125 -9.328125 C 5.789062 -9.191406 6.375 -8.882812 6.875 -8.40625 C 7.375 -7.925781 7.742188 -7.300781 7.984375 -6.53125 C 8.210938 -5.757812 8.253906 -5.035156 8.109375 -4.359375 C 7.960938 -3.691406 7.65625 -3.109375 7.1875 -2.609375 C 6.71875 -2.109375 6.132812 -1.753906 5.4375 -1.546875 C 4.414062 -1.234375 3.535156 -1.316406 2.796875 -1.796875 L 3.0625 -0.9375 L 1 -0.3125 L -2.15625 -10.609375 L 0.015625 -11.265625 L 1.125 -7.625 C 1.476562 -8.40625 2.132812 -8.941406 3.09375 -9.234375 Z M 4.53125 -3.203125 C 5.09375 -3.367188 5.488281 -3.695312 5.71875 -4.1875 C 5.957031 -4.675781 5.984375 -5.234375 5.796875 -5.859375 C 5.597656 -6.484375 5.265625 -6.925781 4.796875 -7.1875 C 4.328125 -7.457031 3.8125 -7.507812 3.25 -7.34375 C 2.695312 -7.164062 2.300781 -6.832031 2.0625 -6.34375 C 1.820312 -5.863281 1.800781 -5.3125 2 -4.6875 C 2.1875 -4.0625 2.515625 -3.613281 2.984375 -3.34375 C 3.460938 -3.070312 3.976562 -3.023438 4.53125 -3.203125 Z M 4.53125 -3.203125 "/></g></g></g><g fill="#000000" fill-opacity="1"><g transform="translate(61.60797, 14.173778)"><g/></g></g><g fill="#000000" fill-opacity="1"><g transform="translate(65.03506, 13.234324)"><g><path d="M 0.515625 -10.203125 L 5.109375 -10.515625 C 6.210938 -10.597656 7.195312 -10.457031 8.0625 -10.09375 C 8.9375 -9.738281 9.628906 -9.191406 10.140625 -8.453125 C 10.660156 -7.722656 10.957031 -6.851562 11.03125 -5.84375 C 11.101562 -4.820312 10.929688 -3.914062 10.515625 -3.125 C 10.097656 -2.34375 9.484375 -1.710938 8.671875 -1.234375 C 7.859375 -0.753906 6.898438 -0.472656 5.796875 -0.390625 L 1.203125 -0.078125 Z M 5.5625 -2.3125 C 6.570312 -2.375 7.359375 -2.707031 7.921875 -3.3125 C 8.484375 -3.914062 8.734375 -4.703125 8.671875 -5.671875 C 8.609375 -6.640625 8.253906 -7.382812 7.609375 -7.90625 C 6.960938 -8.425781 6.132812 -8.65625 5.125 -8.59375 L 2.96875 -8.4375 L 3.40625 -2.15625 Z M 5.5625 -2.3125 "/></g></g></g><g fill="#000000" fill-opacity="1"><g transform="translate(76.233746, 12.522852)"><g><path d="M 9.015625 -3.0625 C 9.015625 -3.03125 8.976562 -2.828125 8.90625 -2.453125 L 3.015625 -3 C 3.085938 -2.5 3.304688 -2.09375 3.671875 -1.78125 C 4.046875 -1.476562 4.523438 -1.300781 5.109375 -1.25 C 5.503906 -1.207031 5.863281 -1.226562 6.1875 -1.3125 C 6.519531 -1.40625 6.832031 -1.566406 7.125 -1.796875 L 8.21875 -0.390625 C 7.394531 0.367188 6.285156 0.6875 4.890625 0.5625 C 4.003906 0.476562 3.238281 0.238281 2.59375 -0.15625 C 1.957031 -0.5625 1.484375 -1.082031 1.171875 -1.71875 C 0.867188 -2.351562 0.753906 -3.0625 0.828125 -3.84375 C 0.898438 -4.601562 1.144531 -5.269531 1.5625 -5.84375 C 1.976562 -6.425781 2.515625 -6.859375 3.171875 -7.140625 C 3.835938 -7.429688 4.5625 -7.539062 5.34375 -7.46875 C 6.09375 -7.394531 6.757812 -7.164062 7.34375 -6.78125 C 7.9375 -6.394531 8.378906 -5.878906 8.671875 -5.234375 C 8.972656 -4.597656 9.085938 -3.875 9.015625 -3.0625 Z M 5.1875 -5.75 C 4.675781 -5.789062 4.234375 -5.6875 3.859375 -5.4375 C 3.484375 -5.1875 3.238281 -4.8125 3.125 -4.3125 L 6.9375 -3.96875 C 6.90625 -4.46875 6.726562 -4.875 6.40625 -5.1875 C 6.09375 -5.507812 5.6875 -5.695312 5.1875 -5.75 Z M 5.1875 -5.75 "/></g></g></g><g fill="#000000" fill-opacity="1"><g transform="translate(84.712686, 13.278055)"><g><path d="M 10.3125 -5.609375 L 5.359375 1.234375 L 3.078125 0.703125 L 1.640625 -7.625 L 3.90625 -7.09375 L 4.828125 -1.453125 L 8.1875 -6.109375 Z M 10.3125 -5.609375 "/></g></g></g><g fill="#000000" fill-opacity="1"><g transform="translate(92.556066, 15.029119)"><g><path d="M 9.5 -0.546875 C 9.488281 -0.515625 9.398438 -0.328125 9.234375 0.015625 L 3.71875 -2.078125 C 3.644531 -1.578125 3.742188 -1.128906 4.015625 -0.734375 C 4.296875 -0.335938 4.707031 -0.0351562 5.25 0.171875 C 5.632812 0.304688 5.992188 0.375 6.328125 0.375 C 6.671875 0.382812 7.015625 0.3125 7.359375 0.15625 L 8.015625 1.828125 C 7.035156 2.335938 5.890625 2.347656 4.578125 1.859375 C 3.742188 1.535156 3.070312 1.09375 2.5625 0.53125 C 2.050781 -0.0195312 1.726562 -0.644531 1.59375 -1.34375 C 1.46875 -2.039062 1.546875 -2.753906 1.828125 -3.484375 C 2.085938 -4.191406 2.492188 -4.769531 3.046875 -5.21875 C 3.609375 -5.664062 4.25 -5.9375 4.96875 -6.03125 C 5.6875 -6.132812 6.410156 -6.046875 7.140625 -5.765625 C 7.847656 -5.492188 8.429688 -5.09375 8.890625 -4.5625 C 9.347656 -4.039062 9.632812 -3.429688 9.75 -2.734375 C 9.863281 -2.035156 9.78125 -1.304688 9.5 -0.546875 Z M 6.546875 -4.15625 C 6.066406 -4.332031 5.609375 -4.347656 5.171875 -4.203125 C 4.742188 -4.066406 4.410156 -3.769531 4.171875 -3.3125 L 7.75 -1.96875 C 7.851562 -2.457031 7.796875 -2.898438 7.578125 -3.296875 C 7.359375 -3.691406 7.015625 -3.976562 6.546875 -4.15625 Z M 6.546875 -4.15625 "/></g></g></g><g fill="#000000" fill-opacity="1"><g transform="translate(100.615807, 18.185749)"><g><path d="M 5.765625 -9.15625 L 7.796875 -8.140625 L 2.96875 1.484375 L 0.9375 0.46875 Z M 5.765625 -9.15625 "/></g></g></g><g fill="#000000" fill-opacity="1"><g transform="translate(104.150514, 19.776569)"><g><path d="M 3.9375 2.65625 C 3.25 2.21875 2.71875 1.675781 2.34375 1.03125 C 1.976562 0.394531 1.804688 -0.273438 1.828125 -0.984375 C 1.847656 -1.691406 2.070312 -2.378906 2.5 -3.046875 C 2.914062 -3.691406 3.441406 -4.171875 4.078125 -4.484375 C 4.710938 -4.796875 5.394531 -4.921875 6.125 -4.859375 C 6.863281 -4.796875 7.578125 -4.546875 8.265625 -4.109375 C 8.960938 -3.660156 9.492188 -3.113281 9.859375 -2.46875 C 10.222656 -1.832031 10.394531 -1.160156 10.375 -0.453125 C 10.351562 0.253906 10.132812 0.929688 9.71875 1.578125 C 9.289062 2.242188 8.757812 2.734375 8.125 3.046875 C 7.488281 3.359375 6.804688 3.484375 6.078125 3.421875 C 5.347656 3.359375 4.632812 3.101562 3.9375 2.65625 Z M 4.9375 1.109375 C 5.425781 1.421875 5.9375 1.507812 6.46875 1.375 C 7 1.25 7.441406 0.90625 7.796875 0.34375 C 8.148438 -0.207031 8.269531 -0.75 8.15625 -1.28125 C 8.050781 -1.8125 7.753906 -2.234375 7.265625 -2.546875 C 6.785156 -2.859375 6.28125 -2.953125 5.75 -2.828125 C 5.21875 -2.703125 4.773438 -2.363281 4.421875 -1.8125 C 4.066406 -1.25 3.941406 -0.695312 4.046875 -0.15625 C 4.160156 0.375 4.457031 0.796875 4.9375 1.109375 Z M 4.9375 1.109375 "/></g></g></g><g fill="#000000" fill-opacity="1"><g transform="translate(111.60395, 24.467893)"><g><path d="M 9.46875 -2.25 C 10.019531 -1.769531 10.40625 -1.207031 10.625 -0.5625 C 10.851562 0.0703125 10.894531 0.726562 10.75 1.40625 C 10.613281 2.09375 10.28125 2.738281 9.75 3.34375 C 9.226562 3.945312 8.640625 4.363281 7.984375 4.59375 C 7.328125 4.820312 6.664062 4.863281 6 4.71875 C 5.34375 4.582031 4.738281 4.273438 4.1875 3.796875 C 3.425781 3.140625 3.046875 2.390625 3.046875 1.546875 L 0.65625 4.296875 L -1.0625 2.8125 L 5.90625 -5.1875 L 7.53125 -3.765625 L 6.953125 -3.09375 C 7.816406 -3.238281 8.65625 -2.957031 9.46875 -2.25 Z M 5.109375 2.15625 C 5.546875 2.53125 6.035156 2.691406 6.578125 2.640625 C 7.117188 2.585938 7.601562 2.316406 8.03125 1.828125 C 8.46875 1.328125 8.671875 0.804688 8.640625 0.265625 C 8.617188 -0.265625 8.390625 -0.71875 7.953125 -1.09375 C 7.515625 -1.476562 7.023438 -1.644531 6.484375 -1.59375 C 5.953125 -1.550781 5.46875 -1.28125 5.03125 -0.78125 C 4.601562 -0.289062 4.398438 0.222656 4.421875 0.765625 C 4.441406 1.304688 4.671875 1.769531 5.109375 2.15625 Z M 5.109375 2.15625 "/></g></g></g><g fill="#000000" fill-opacity="1"><g transform="translate(118.640026, 30.582547)"><g><path d="M 8.59375 4.078125 C 8.570312 4.097656 8.410156 4.21875 8.109375 4.4375 L 4.265625 -0.046875 C 3.960938 0.359375 3.832031 0.800781 3.875 1.28125 C 3.925781 1.757812 4.144531 2.222656 4.53125 2.671875 C 4.789062 2.972656 5.066406 3.203125 5.359375 3.359375 C 5.660156 3.523438 6 3.628906 6.375 3.671875 L 6.15625 5.453125 C 5.050781 5.429688 4.039062 4.882812 3.125 3.8125 C 2.550781 3.144531 2.171875 2.441406 1.984375 1.703125 C 1.796875 0.960938 1.816406 0.257812 2.046875 -0.40625 C 2.273438 -1.082031 2.6875 -1.675781 3.28125 -2.1875 C 3.851562 -2.675781 4.488281 -2.984375 5.1875 -3.109375 C 5.882812 -3.242188 6.570312 -3.179688 7.25 -2.921875 C 7.925781 -2.660156 8.519531 -2.234375 9.03125 -1.640625 C 9.519531 -1.066406 9.835938 -0.4375 9.984375 0.25 C 10.140625 0.9375 10.101562 1.613281 9.875 2.28125 C 9.644531 2.945312 9.21875 3.546875 8.59375 4.078125 Z M 7.734375 -0.5 C 7.398438 -0.894531 7.007812 -1.128906 6.5625 -1.203125 C 6.125 -1.285156 5.6875 -1.191406 5.25 -0.921875 L 7.75 1.984375 C 8.070312 1.609375 8.226562 1.191406 8.21875 0.734375 C 8.21875 0.285156 8.054688 -0.125 7.734375 -0.5 Z M 7.734375 -0.5 "/></g></g></g><g fill="#000000" fill-opacity="1"><g transform="translate(124.189743, 37.139991)"><g><path d="M 7.390625 -1.109375 C 7.867188 -1.097656 8.316406 -0.957031 8.734375 -0.6875 C 9.148438 -0.414062 9.523438 -0.03125 9.859375 0.46875 L 8.125 1.640625 C 8 1.421875 7.910156 1.273438 7.859375 1.203125 C 7.492188 0.660156 7.054688 0.335938 6.546875 0.234375 C 6.046875 0.140625 5.5 0.289062 4.90625 0.6875 L 1.84375 2.75 L 0.578125 0.875 L 7.046875 -3.46875 L 8.25 -1.6875 Z M 7.390625 -1.109375 "/></g></g></g><g fill="#000000" fill-opacity="1"><g transform="translate(127.441658, 42.029366)"><g/></g></g><g fill="#000000" fill-opacity="1"><g transform="translate(129.318063, 45.352047)"><g><path d="M 0.734375 1.765625 C 0.566406 1.410156 0.539062 1.050781 0.65625 0.6875 C 0.78125 0.320312 1.03125 0.0507812 1.40625 -0.125 C 1.769531 -0.300781 2.128906 -0.320312 2.484375 -0.1875 C 2.835938 -0.0625 3.097656 0.175781 3.265625 0.53125 C 3.441406 0.882812 3.472656 1.238281 3.359375 1.59375 C 3.242188 1.957031 3.003906 2.226562 2.640625 2.40625 C 2.265625 2.582031 1.894531 2.609375 1.53125 2.484375 C 1.175781 2.359375 0.910156 2.117188 0.734375 1.765625 Z M 0.734375 1.765625 "/></g></g></g><g fill="#000000" fill-opacity="1"><g transform="translate(130.867413, 48.503412)"><g/></g></g><g fill="#000000" fill-opacity="1"><g transform="translate(132.457669, 51.700332)"><g><path d="M 1.390625 5.546875 C 0.984375 4.140625 1.054688 2.9375 1.609375 1.9375 C 2.171875 0.945312 3.164062 0.25 4.59375 -0.15625 L 10.0625 -1.703125 L 10.703125 0.578125 L 5.3125 2.109375 C 3.570312 2.597656 2.910156 3.566406 3.328125 5.015625 C 3.523438 5.722656 3.882812 6.203125 4.40625 6.453125 C 4.925781 6.703125 5.640625 6.703125 6.546875 6.453125 L 11.9375 4.921875 L 12.578125 7.15625 L 7.109375 8.703125 C 5.679688 9.109375 4.46875 9.03125 3.46875 8.46875 C 2.46875 7.914062 1.773438 6.941406 1.390625 5.546875 Z M 1.390625 5.546875 "/></g></g></g><g fill="#000000" fill-opacity="1"><g transform="translate(135.24226, 62.170274)"><g><path d="M 10.21875 -0.359375 L 10.578125 1.953125 L 0.546875 3.5 L 0.1875 1.1875 Z M 10.21875 -0.359375 "/></g></g></g><g fill="#000000" fill-opacity="1"><g transform="translate(135.940829, 66.493516)"><g><path d="M 12.484375 3.40625 L 12.640625 5.421875 L -1.34375 1.640625 L -1.484375 -0.375 Z M 12.484375 3.40625 "/></g></g></g><g fill="#000000" fill-opacity="1"><g transform="translate(136.540728, 71.547405)"><g><path d="M -0.484375 5.6875 C -0.410156 4.238281 0.046875 3.132812 0.890625 2.375 C 1.742188 1.613281 2.914062 1.273438 4.40625 1.359375 L 10.078125 1.671875 L 9.953125 4.03125 L 4.359375 3.71875 C 2.546875 3.625 1.59375 4.328125 1.5 5.828125 C 1.46875 6.554688 1.65625 7.125 2.0625 7.53125 C 2.476562 7.9375 3.15625 8.164062 4.09375 8.21875 L 9.6875 8.53125 L 9.5625 10.859375 L 3.890625 10.546875 C 2.398438 10.460938 1.273438 9.992188 0.515625 9.140625 C -0.234375 8.285156 -0.566406 7.132812 -0.484375 5.6875 Z M -0.484375 5.6875 "/></g></g></g><g fill="#000000" fill-opacity="1"><g transform="translate(135.967617, 82.183081)"><g><path d="M -1.671875 7.40625 L 2.3125 5.796875 L -0.59375 2.671875 L -0.015625 0.046875 L 4.203125 4.828125 L 9.859375 2.46875 L 9.265625 5.0625 L 5.546875 6.609375 L 8.25 9.578125 L 7.703125 12.046875 L 3.6875 7.53125 L -2.265625 10.0625 Z M -1.671875 7.40625 "/></g></g></g><g fill="#000000" fill-opacity="1"><g transform="translate(133.676387, 91.73475)"><g/></g></g><g fill="#000000" fill-opacity="1"><g transform="translate(132.780413, 95.178559)"><g><path d="M 8.609375 5.515625 L 6.59375 9.671875 C 6.113281 10.660156 5.5 11.441406 4.75 12.015625 C 4 12.597656 3.175781 12.929688 2.28125 13.015625 C 1.394531 13.109375 0.492188 12.929688 -0.421875 12.484375 C -1.335938 12.035156 -2.035156 11.429688 -2.515625 10.671875 C -2.992188 9.921875 -3.238281 9.070312 -3.25 8.125 C -3.257812 7.1875 -3.023438 6.222656 -2.546875 5.234375 L -0.53125 1.078125 Z M -0.765625 5.96875 C -1.203125 6.875 -1.296875 7.722656 -1.046875 8.515625 C -0.804688 9.304688 -0.253906 9.914062 0.609375 10.34375 C 1.484375 10.769531 2.304688 10.832031 3.078125 10.53125 C 3.847656 10.226562 4.453125 9.625 4.890625 8.71875 L 5.84375 6.78125 L 0.1875 4.03125 Z M -0.765625 5.96875 "/></g></g></g><g fill="#000000" fill-opacity="1"><g transform="translate(127.828489, 105.246053)"><g><path d="M -1.828125 9.34375 C -1.859375 9.320312 -2.015625 9.1875 -2.296875 8.9375 L 1.09375 4.109375 C 0.632812 3.921875 0.175781 3.910156 -0.28125 4.078125 C -0.738281 4.242188 -1.132812 4.566406 -1.46875 5.046875 C -1.695312 5.378906 -1.851562 5.707031 -1.9375 6.03125 C -2.019531 6.363281 -2.035156 6.710938 -1.984375 7.078125 L -3.75 7.3125 C -4.007812 6.226562 -3.734375 5.113281 -2.921875 3.96875 C -2.410156 3.238281 -1.820312 2.691406 -1.15625 2.328125 C -0.5 1.972656 0.179688 1.820312 0.890625 1.875 C 1.609375 1.9375 2.289062 2.191406 2.9375 2.640625 C 3.550781 3.078125 4.003906 3.617188 4.296875 4.265625 C 4.597656 4.910156 4.707031 5.59375 4.625 6.3125 C 4.539062 7.03125 4.273438 7.707031 3.828125 8.34375 C 3.390625 8.96875 2.851562 9.4375 2.21875 9.75 C 1.59375 10.0625 0.925781 10.1875 0.21875 10.125 C -0.476562 10.0625 -1.160156 9.800781 -1.828125 9.34375 Z M 2.40625 7.359375 C 2.695312 6.941406 2.828125 6.507812 2.796875 6.0625 C 2.765625 5.613281 2.5625 5.207031 2.1875 4.84375 L -0.015625 7.984375 C 0.429688 8.210938 0.875 8.265625 1.3125 8.140625 C 1.757812 8.023438 2.125 7.765625 2.40625 7.359375 Z M 2.40625 7.359375 "/></g></g></g><g fill="#000000" fill-opacity="1"><g transform="translate(122.906477, 112.232744)"><g><path d="M -2.5625 2.625 C -2.125 2.15625 -1.632812 1.742188 -1.09375 1.390625 C -0.5625 1.046875 -0.0859375 0.816406 0.328125 0.703125 L 1.03125 2.34375 C 0.632812 2.457031 0.21875 2.648438 -0.21875 2.921875 C -0.664062 3.191406 -1.046875 3.5 -1.359375 3.84375 C -2.003906 4.550781 -2.148438 5.066406 -1.796875 5.390625 C -1.628906 5.535156 -1.421875 5.539062 -1.171875 5.40625 C -0.929688 5.28125 -0.601562 5.046875 -0.1875 4.703125 C 0.3125 4.296875 0.75 3.976562 1.125 3.75 C 1.5 3.53125 1.90625 3.414062 2.34375 3.40625 C 2.78125 3.40625 3.21875 3.601562 3.65625 4 C 4.019531 4.332031 4.25 4.726562 4.34375 5.1875 C 4.4375 5.65625 4.375 6.160156 4.15625 6.703125 C 3.945312 7.253906 3.585938 7.804688 3.078125 8.359375 C 2.710938 8.773438 2.300781 9.140625 1.84375 9.453125 C 1.382812 9.765625 0.957031 9.984375 0.5625 10.109375 L -0.125 8.484375 C 0.625 8.234375 1.269531 7.804688 1.8125 7.203125 C 2.144531 6.847656 2.34375 6.535156 2.40625 6.265625 C 2.46875 5.992188 2.421875 5.789062 2.265625 5.65625 C 2.085938 5.488281 1.875 5.46875 1.625 5.59375 C 1.375 5.71875 1.023438 5.960938 0.578125 6.328125 C 0.0664062 6.722656 -0.367188 7.03125 -0.734375 7.25 C -1.097656 7.46875 -1.492188 7.578125 -1.921875 7.578125 C -2.359375 7.585938 -2.789062 7.398438 -3.21875 7.015625 C -3.5625 6.691406 -3.773438 6.296875 -3.859375 5.828125 C -3.953125 5.359375 -3.882812 4.847656 -3.65625 4.296875 C -3.4375 3.742188 -3.070312 3.1875 -2.5625 2.625 Z M -2.5625 2.625 "/></g></g></g><g fill="#000000" fill-opacity="1"><g transform="translate(117.973287, 117.551862)"><g><path d="M 4.46875 6.46875 L 2.796875 8 L -2.453125 2.234375 L -0.78125 0.703125 Z M 4.375 8.046875 C 4.675781 7.765625 5.003906 7.625 5.359375 7.625 C 5.710938 7.632812 6.015625 7.769531 6.265625 8.03125 C 6.503906 8.300781 6.609375 8.609375 6.578125 8.953125 C 6.546875 9.304688 6.378906 9.625 6.078125 9.90625 C 5.765625 10.1875 5.429688 10.328125 5.078125 10.328125 C 4.734375 10.335938 4.441406 10.210938 4.203125 9.953125 C 3.953125 9.671875 3.835938 9.351562 3.859375 9 C 3.890625 8.644531 4.0625 8.328125 4.375 8.046875 Z M 4.375 8.046875 "/></g></g></g><g fill="#000000" fill-opacity="1"><g transform="translate(115.246696, 120.287003)"><g><path d="M -2.765625 11.65625 L -6.59375 6.40625 C -7.4375 5.238281 -7.757812 4.15625 -7.5625 3.15625 C -7.363281 2.164062 -6.6875 1.253906 -5.53125 0.421875 C -4.914062 -0.0234375 -4.28125 -0.375 -3.625 -0.625 C -2.96875 -0.882812 -2.363281 -1 -1.8125 -0.96875 L -1.578125 0.859375 C -2.003906 0.835938 -2.46875 0.910156 -2.96875 1.078125 C -3.46875 1.242188 -3.921875 1.476562 -4.328125 1.78125 C -4.960938 2.238281 -5.320312 2.71875 -5.40625 3.21875 C -5.5 3.71875 -5.335938 4.257812 -4.921875 4.84375 L -4.71875 5.109375 C -4.625 4.234375 -4.15625 3.484375 -3.3125 2.859375 C -2.738281 2.441406 -2.117188 2.1875 -1.453125 2.09375 C -0.785156 2 -0.144531 2.082031 0.46875 2.34375 C 1.09375 2.601562 1.625 3.03125 2.0625 3.625 C 2.5 4.238281 2.742188 4.875 2.796875 5.53125 C 2.847656 6.195312 2.722656 6.832031 2.421875 7.4375 C 2.128906 8.039062 1.695312 8.550781 1.125 8.96875 C 0.207031 9.632812 -0.707031 9.84375 -1.625 9.59375 L -1.03125 10.40625 Z M -2.578125 4.640625 C -3.066406 4.992188 -3.359375 5.425781 -3.453125 5.9375 C -3.554688 6.445312 -3.441406 6.925781 -3.109375 7.375 C -2.773438 7.84375 -2.347656 8.109375 -1.828125 8.171875 C -1.316406 8.234375 -0.816406 8.085938 -0.328125 7.734375 C 0.148438 7.390625 0.441406 6.957031 0.546875 6.4375 C 0.660156 5.925781 0.550781 5.4375 0.21875 4.96875 C -0.113281 4.519531 -0.539062 4.265625 -1.0625 4.203125 C -1.59375 4.148438 -2.097656 4.296875 -2.578125 4.640625 Z M -2.578125 4.640625 "/></g></g></g><g fill="#000000" fill-opacity="1"><g transform="translate(107.648071, 125.877383)"><g><path d="M -1.515625 9.703125 C -2.378906 10.140625 -3.207031 10.234375 -4 9.984375 C -4.789062 9.734375 -5.445312 9.101562 -5.96875 8.09375 L -8.015625 4.125 L -6 3.09375 L -4.109375 6.765625 C -3.828125 7.304688 -3.492188 7.648438 -3.109375 7.796875 C -2.734375 7.941406 -2.316406 7.898438 -1.859375 7.671875 C -1.359375 7.410156 -1.035156 7.046875 -0.890625 6.578125 C -0.753906 6.109375 -0.847656 5.566406 -1.171875 4.953125 L -2.9375 1.515625 L -0.9375 0.484375 L 2.640625 7.421875 L 0.734375 8.40625 L 0.3125 7.59375 C 0.1875 8.019531 -0.03125 8.414062 -0.34375 8.78125 C -0.65625 9.144531 -1.046875 9.453125 -1.515625 9.703125 Z M -1.515625 9.703125 "/></g></g></g><g fill="#000000" fill-opacity="1"><g transform="translate(99.361375, 130.171689)"><g><path d="M -6.953125 6.5 C -6.960938 6.46875 -7.015625 6.269531 -7.109375 5.90625 L -1.53125 3.984375 C -1.789062 3.546875 -2.15625 3.257812 -2.625 3.125 C -3.09375 3 -3.601562 3.03125 -4.15625 3.21875 C -4.539062 3.351562 -4.859375 3.53125 -5.109375 3.75 C -5.367188 3.96875 -5.585938 4.238281 -5.765625 4.5625 L -7.328125 3.71875 C -6.898438 2.6875 -6.019531 1.941406 -4.6875 1.484375 C -3.851562 1.203125 -3.0625 1.109375 -2.3125 1.203125 C -1.5625 1.304688 -0.910156 1.585938 -0.359375 2.046875 C 0.179688 2.515625 0.578125 3.113281 0.828125 3.84375 C 1.078125 4.5625 1.128906 5.269531 0.984375 5.96875 C 0.835938 6.664062 0.519531 7.28125 0.03125 7.8125 C -0.445312 8.351562 -1.054688 8.75 -1.796875 9 C -2.515625 9.25 -3.222656 9.316406 -3.921875 9.203125 C -4.617188 9.085938 -5.234375 8.796875 -5.765625 8.328125 C -6.296875 7.867188 -6.691406 7.257812 -6.953125 6.5 Z M -2.375 7.359375 C -1.894531 7.203125 -1.535156 6.929688 -1.296875 6.546875 C -1.054688 6.160156 -0.988281 5.71875 -1.09375 5.21875 L -4.703125 6.453125 C -4.472656 6.910156 -4.144531 7.21875 -3.71875 7.375 C -3.289062 7.53125 -2.84375 7.523438 -2.375 7.359375 Z M -2.375 7.359375 "/></g></g></g><g fill="#000000" fill-opacity="1"><g transform="translate(91.223622, 132.912517)"><g><path d="M -1.6875 7.296875 C -1.875 7.722656 -2.171875 8.078125 -2.578125 8.359375 C -2.984375 8.648438 -3.476562 8.859375 -4.0625 8.984375 L -4.515625 6.9375 C -4.265625 6.90625 -4.09375 6.878906 -4 6.859375 C -3.375 6.722656 -2.921875 6.4375 -2.640625 6 C -2.359375 5.570312 -2.296875 5.007812 -2.453125 4.3125 L -3.234375 0.703125 L -1.015625 0.21875 L 0.640625 7.84375 L -1.46875 8.3125 Z M -1.6875 7.296875 "/></g></g></g><g fill="#000000" fill-opacity="1"><g transform="translate(85.480638, 134.13364)"><g/></g></g><g fill="#000000" fill-opacity="1"><g transform="translate(81.700158, 134.653822)"><g><path d="M -1.921875 0.03125 C -1.523438 0 -1.179688 0.109375 -0.890625 0.359375 C -0.597656 0.609375 -0.4375 0.9375 -0.40625 1.34375 C -0.375 1.75 -0.484375 2.09375 -0.734375 2.375 C -0.984375 2.65625 -1.304688 2.8125 -1.703125 2.84375 C -2.097656 2.875 -2.4375 2.769531 -2.71875 2.53125 C -3.007812 2.289062 -3.171875 1.96875 -3.203125 1.5625 C -3.234375 1.15625 -3.125 0.804688 -2.875 0.515625 C -2.632812 0.222656 -2.316406 0.0625 -1.921875 0.03125 Z M -1.921875 0.03125 "/></g></g></g></svg>