<?xml version="1.0" standalone="no"?>
<!DOCTYPE svg PUBLIC "-//W3C//DTD SVG 20010904//EN"
 "http://www.w3.org/TR/2001/REC-SVG-20010904/DTD/svg10.dtd">
<svg version="1.0" xmlns="http://www.w3.org/2000/svg"
 width="1080.000000pt" height="1080.000000pt" viewBox="0 0 1080.000000 1080.000000"
 preserveAspectRatio="xMidYMid meet">

<g transform="translate(0.000000,1080.000000) scale(0.100000,-0.100000)"
fill="#000000" stroke="none">
<path d="M5844 10574 c3 -21 24 -192 46 -379 22 -187 42 -345 44 -351 2 -6 43
-19 92 -28 72 -15 88 -15 95 -4 5 7 64 109 130 226 67 117 124 211 126 208 4
-4 63 -472 63 -502 0 -6 41 -19 91 -29 78 -15 93 -16 100 -4 157 267 374 665
365 670 -15 8 -146 32 -150 28 -2 -2 -61 -105 -130 -229 -131 -232 -146 -255
-146 -229 -1 34 -60 522 -64 526 -5 6 -123 32 -143 33 -6 0 -71 -103 -143
-230 -72 -126 -135 -230 -139 -230 -3 0 -20 119 -36 265 l-29 264 -48 10 c-26
6 -66 14 -89 17 l-41 7 6 -39z"/>
<path d="M4575 10356 c-28 -13 -63 -37 -77 -54 -28 -33 -38 -32 -38 5 0 15 -6
23 -16 23 -35 0 -144 -24 -144 -32 0 -11 100 -530 104 -544 3 -8 27 -7 83 3
43 8 79 16 80 17 1 1 -12 71 -28 155 -18 96 -27 167 -23 188 9 46 56 91 110
104 24 6 44 16 44 22 0 35 -25 137 -34 137 -6 0 -34 -11 -61 -24z"/>
<path d="M3905 10206 c-99 -25 -170 -79 -213 -160 -35 -67 -38 -177 -5 -247
77 -170 260 -222 450 -129 58 29 133 99 133 125 0 6 -24 25 -54 42 l-54 31
-21 -29 c-42 -57 -148 -91 -214 -70 -36 12 -84 56 -70 64 7 4 155 51 341 108
46 15 62 24 62 38 0 31 -60 139 -93 167 -71 60 -173 83 -262 60z m108 -130
c40 -16 74 -53 61 -65 -9 -9 -226 -81 -244 -81 -5 0 -10 16 -10 35 0 60 69
120 143 124 10 1 32 -5 50 -13z"/>
<path d="M7124 10052 c-28 -10 -64 -29 -81 -42 -39 -32 -88 -104 -103 -153
-16 -52 -8 -152 15 -202 47 -98 179 -183 299 -192 62 -5 136 10 136 27 0 5 -9
34 -20 64 -21 54 -21 54 -52 45 -97 -27 -228 57 -228 147 l0 34 48 -19 c26
-11 112 -47 192 -80 80 -34 149 -61 153 -61 20 0 50 96 50 160 0 82 -28 143
-90 200 -87 81 -214 110 -319 72z m206 -142 c34 -25 60 -73 60 -115 0 -14 -6
-25 -12 -25 -30 1 -243 98 -243 110 0 8 16 25 35 38 44 30 112 27 160 -8z"/>
<path d="M5095 10016 c-67 -67 -27 -176 65 -176 52 0 86 22 100 66 15 44 6 79
-27 110 -36 34 -104 34 -138 0z"/>
<path d="M7665 9724 c-105 -174 -195 -326 -202 -339 -11 -20 -7 -24 54 -60
l66 -39 18 22 17 22 22 -46 c58 -120 244 -178 367 -116 47 25 113 94 145 154
19 35 23 59 23 128 0 75 -3 91 -27 131 -52 88 -139 142 -229 143 -66 1 -68
-12 19 130 30 50 56 94 58 98 4 6 -124 88 -137 88 -2 0 -90 -142 -194 -316z
m280 -139 c31 -17 47 -36 60 -67 20 -52 14 -89 -24 -150 -56 -88 -163 -99
-230 -23 -51 58 -51 135 1 201 53 66 123 81 193 39z"/>
<path d="M3258 9955 c-91 -34 -170 -112 -198 -199 -32 -99 10 -240 94 -312
111 -95 309 -79 440 36 34 30 76 95 76 118 0 5 -26 19 -57 31 -56 21 -58 22
-68 4 -55 -100 -207 -145 -272 -81 l-23 23 191 90 c105 50 193 93 195 96 8 13
-50 110 -84 140 -57 50 -108 69 -187 68 -38 0 -87 -7 -107 -14z m162 -137 c19
-13 32 -27 29 -33 -2 -5 -58 -36 -124 -67 l-120 -59 -3 41 c-8 108 126 180
218 118z"/>
<path d="M2662 9624 c-59 -29 -116 -90 -133 -142 l-12 -36 -17 22 c-10 12 -21
22 -25 22 -8 0 -125 -79 -125 -85 0 -3 71 -110 158 -239 l159 -235 66 45 c37
24 67 46 67 49 0 3 -40 65 -90 140 -49 74 -92 151 -96 170 -9 52 21 105 76
133 81 41 104 25 231 -165 49 -73 92 -133 96 -133 8 0 133 81 133 86 0 13
-203 306 -231 334 -67 67 -165 80 -257 34z"/>
<path d="M1993 9450 c-58 -35 -71 -98 -29 -147 56 -65 171 -13 171 78 0 76
-73 111 -142 69z"/>
<path d="M8635 9228 c-399 -407 -380 -385 -364 -404 8 -9 79 -78 158 -152 183
-171 232 -197 366 -197 78 0 97 4 146 28 72 35 151 114 186 186 24 49 28 68
28 146 0 81 -3 97 -33 160 -28 59 -57 94 -185 222 -83 84 -154 153 -157 153
-3 0 -68 -64 -145 -142z m247 -155 c119 -121 143 -199 92 -301 -46 -92 -139
-149 -227 -139 -63 8 -107 35 -197 120 l-71 68 158 164 c87 90 160 164 163
164 3 1 40 -34 82 -76z"/>
<path d="M2146 9237 l-59 -53 183 -217 c101 -119 186 -217 189 -217 3 0 32 24
65 53 l58 52 -183 218 c-100 119 -185 217 -188 217 -3 0 -32 -24 -65 -53z"/>
<path d="M1895 9014 l-47 -55 21 -23 22 -24 -44 -6 c-117 -18 -227 -153 -227
-279 0 -145 131 -277 274 -277 129 0 264 109 282 226 6 44 7 45 26 27 47 -42
62 -118 34 -171 -31 -60 -158 -152 -207 -152 -23 0 -23 -10 0 -75 11 -31 25
-51 35 -53 35 -7 148 59 216 127 112 110 150 214 115 322 -15 49 -34 71 -228
262 -116 114 -214 207 -218 207 -4 0 -28 -25 -54 -56z m88 -215 c38 -20 76
-61 87 -95 29 -86 -60 -194 -158 -194 -63 0 -132 73 -132 139 0 98 125 190
203 150z"/>
<path d="M9108 8511 c-104 -42 -181 -136 -194 -237 -16 -130 83 -297 210 -355
68 -31 83 -26 91 27 3 26 9 53 12 60 3 8 -10 19 -34 29 -100 42 -159 157 -121
240 6 14 14 25 18 25 4 0 65 -76 135 -170 143 -191 131 -184 207 -108 110 110
108 280 -5 405 -82 90 -217 126 -319 84z m213 -158 c35 -30 59 -78 59 -118 0
-32 -28 -87 -41 -83 -6 2 -46 51 -89 108 -53 71 -75 107 -67 112 7 4 33 8 59
8 36 0 54 -6 79 -27z"/>
<path d="M1383 8399 c-81 -40 -144 -138 -147 -230 -1 -52 -6 -58 -26 -34 -7 8
-16 15 -21 15 -13 0 -91 -119 -84 -130 6 -10 449 -320 457 -320 10 0 89 121
86 131 -2 6 -60 50 -128 98 -171 120 -197 165 -148 252 25 45 76 73 117 64 16
-3 93 -51 171 -105 l143 -99 17 22 c9 12 31 43 48 68 l31 46 -156 108 c-86 60
-172 114 -192 121 -54 20 -120 17 -168 -7z"/>
<path d="M9633 8088 c-24 -27 -346 -437 -356 -455 -4 -7 11 -44 34 -85 l41
-74 296 33 c163 18 303 33 310 33 8 0 0 24 -24 68 -21 37 -38 68 -39 70 -2 2
-89 -7 -194 -18 -106 -12 -199 -20 -207 -18 -9 2 29 56 111 158 68 85 124 160
124 165 1 6 -16 40 -37 78 l-38 67 -21 -22z"/>
<path d="M729 7705 c-65 -134 -119 -248 -119 -252 0 -13 663 -339 667 -328 2
6 57 120 123 254 66 134 120 247 120 252 0 9 -92 59 -110 59 -5 0 -49 -78 -96
-172 -47 -95 -88 -175 -90 -178 -3 -2 -38 13 -79 33 l-75 37 50 101 c28 55 62
125 75 155 l24 54 -59 30 -60 30 -74 -155 c-41 -85 -77 -155 -80 -155 -17 0
-136 66 -136 75 0 6 36 84 80 174 44 89 80 166 80 170 0 6 -104 61 -116 61 -3
0 -59 -110 -125 -245z"/>
<path d="M9728 7391 c-72 -29 -124 -75 -155 -139 -70 -142 -6 -367 125 -440
l41 -23 30 58 29 59 -33 21 c-42 28 -85 113 -85 168 0 41 31 104 55 112 6 1
43 -84 84 -190 41 -105 77 -195 81 -199 10 -13 123 47 157 83 69 73 93 197 58
300 -23 66 -83 138 -144 172 -70 39 -172 47 -243 18z m209 -156 c76 -50 85
-188 13 -232 -15 -10 -22 3 -64 110 -25 67 -46 128 -46 136 0 18 62 9 97 -14z"/>
<path d="M681 6853 c-98 -35 -171 -146 -179 -274 -4 -67 -1 -83 23 -138 45
-100 131 -160 242 -169 81 -6 143 12 202 58 74 59 131 184 131 291 0 47 -25
135 -41 145 -5 3 -33 -8 -63 -25 l-54 -31 15 -41 c25 -74 -9 -178 -73 -220
-28 -18 -74 -26 -74 -12 0 4 23 94 50 200 28 106 50 197 50 202 0 31 -154 40
-229 14z m95 -150 c-3 -10 -17 -65 -31 -123 -35 -141 -31 -133 -55 -120 -54
29 -77 128 -45 191 19 36 70 69 108 69 22 0 27 -4 23 -17z"/>
<path d="M10071 6754 c-205 -56 -375 -105 -377 -107 -5 -4 32 -146 39 -154 6
-5 740 197 750 207 8 7 -17 122 -31 146 -5 8 -124 -21 -381 -92z"/>
<path d="M9997 6456 c-94 -35 -164 -110 -188 -201 -17 -62 -6 -172 23 -236 52
-114 143 -174 263 -173 92 0 160 30 220 96 58 64 79 129 73 222 -8 122 -63
218 -157 274 -54 31 -173 41 -234 18z m190 -176 c63 -38 83 -132 43 -198 -28
-45 -98 -76 -160 -70 -82 8 -130 62 -130 146 0 55 22 91 74 123 42 26 130 26
173 -1z"/>
<path d="M420 6222 c0 -53 15 -108 36 -133 21 -24 17 -28 -20 -22 l-33 5 -7
-58 c-4 -33 -10 -68 -12 -79 -5 -20 7 -23 276 -59 155 -21 283 -36 286 -33 8
8 27 147 21 153 -3 3 -70 15 -149 26 -211 29 -252 56 -250 166 l1 60 -47 6
c-26 4 -59 9 -74 12 -28 5 -28 5 -28 -44z"/>
<path d="M9828 5743 l-168 -3 0 -86 0 -85 130 7 c72 4 130 4 130 0 0 -5 -9
-20 -20 -35 -39 -55 -47 -163 -18 -241 30 -83 114 -150 210 -170 141 -28 277
35 334 155 42 89 28 230 -30 288 -16 16 -16 17 13 17 l31 0 0 80 0 80 -222 -2
c-123 -1 -298 -4 -390 -5z m412 -178 c69 -36 95 -114 62 -188 -27 -60 -90 -92
-164 -84 -94 11 -142 66 -135 154 4 56 20 83 72 114 37 23 124 25 165 4z"/>
<path d="M533 5730 c-125 -26 -183 -115 -183 -281 0 -81 29 -197 54 -218 11
-9 26 -6 68 15 l54 26 -20 42 c-16 31 -21 60 -21 119 0 76 1 80 33 108 18 16
41 29 52 29 19 0 20 -7 20 -95 0 -122 15 -188 51 -230 38 -43 78 -59 138 -53
98 10 154 86 155 212 0 72 -26 147 -56 159 -7 3 2 6 20 6 l32 1 0 80 0 80
-103 0 c-57 0 -137 2 -178 5 -41 2 -93 0 -116 -5z m236 -175 c34 -17 54 -60
53 -114 -1 -68 -33 -100 -86 -87 -33 8 -46 47 -46 136 0 79 0 80 25 80 15 0
39 -7 54 -15z"/>
<path d="M344 5063 c4 -32 9 -65 12 -73 3 -12 56 -26 205 -54 l201 -38 -39
-22 c-21 -12 -101 -55 -178 -95 -77 -41 -142 -75 -144 -77 -1 -1 2 -34 9 -72
l11 -70 195 -38 c107 -21 194 -41 194 -44 0 -3 -75 -45 -167 -94 -93 -48 -171
-91 -174 -95 -6 -6 9 -141 17 -150 3 -3 521 274 533 285 2 1 -3 38 -10 81
l-14 78 -170 36 c-93 19 -176 37 -183 40 -7 2 62 45 153 94 144 78 165 92 161
110 -3 12 -8 47 -12 78 -6 47 -11 58 -28 62 -28 7 -569 115 -574 115 -2 0 -1
-26 2 -57z"/>
<path d="M10027 5056 c-132 -47 -214 -187 -205 -350 4 -73 38 -166 61 -166 7
0 33 16 60 35 45 34 46 37 33 58 -56 87 -2 252 88 269 26 5 27 4 21 -36 -32
-212 -50 -388 -42 -393 6 -4 42 -6 81 -6 172 0 286 122 286 308 0 63 -4 82
-33 136 -20 40 -48 75 -75 96 -76 58 -192 78 -275 49z m212 -192 c65 -54 63
-154 -4 -213 -20 -18 -47 -31 -61 -31 -24 0 -26 3 -21 33 4 17 12 78 19 135 8
67 16 102 24 102 7 0 26 -12 43 -26z"/>
<path d="M9752 4360 l-20 -80 37 -9 c20 -5 89 -23 153 -40 65 -16 129 -38 143
-47 49 -32 69 -106 46 -167 -10 -24 -8 -26 59 -42 38 -9 74 -14 79 -10 16 9
13 110 -4 152 -19 46 -20 43 17 41 31 -3 31 -2 49 67 10 38 16 71 14 74 -5 4
-534 141 -546 141 -4 0 -16 -36 -27 -80z"/>
<path d="M988 4214 l-48 -36 20 -25 c25 -32 26 -85 3 -105 -14 -12 -234 -88
-255 -88 -3 0 -13 29 -23 65 -19 72 -22 74 -96 47 l-47 -17 20 -64 c11 -35 16
-67 11 -70 -4 -4 -34 -15 -66 -25 -35 -11 -57 -22 -54 -29 3 -10 21 -66 42
-134 3 -9 15 -9 52 2 95 30 90 30 97 -9 4 -19 10 -38 15 -40 4 -3 34 2 65 11
54 15 57 18 50 42 -16 61 -17 60 111 101 178 55 209 76 236 157 19 60 -11 183
-58 235 -21 23 -20 23 -75 -18z"/>
<path d="M9581 3756 c-31 -17 -50 -53 -51 -92 0 -70 86 -122 149 -89 39 20 65
74 56 116 -14 63 -96 97 -154 65z"/>
<path d="M1052 3649 c-106 -43 -197 -79 -201 -79 -5 0 -20 27 -34 60 -15 33
-32 60 -39 59 -7 0 -34 -10 -60 -22 l-47 -22 29 -67 29 -67 -35 -11 c-18 -6
-43 -9 -54 -5 -24 8 -50 54 -50 90 0 24 -3 25 -52 25 -73 0 -82 -8 -74 -61 16
-107 91 -200 174 -215 32 -6 93 3 134 21 14 5 21 -2 34 -34 9 -23 18 -41 20
-41 2 0 28 11 59 25 l56 24 -16 37 c-8 21 -12 41 -8 45 5 4 80 36 168 72 88
36 174 72 192 79 l31 13 -31 77 -32 77 -193 -80z"/>
<path d="M1124 3369 c-161 -61 -234 -244 -162 -401 34 -72 99 -143 163 -176
73 -38 169 -37 247 1 157 77 210 247 129 412 -76 153 -231 221 -377 164z m184
-153 c113 -59 116 -198 6 -262 -84 -49 -170 -30 -213 46 -44 78 -17 158 69
203 58 30 98 34 138 13z"/>
<path d="M9323 3145 c-111 -56 -204 -200 -211 -327 -4 -55 0 -76 21 -122 37
-80 87 -122 307 -261 l195 -123 42 67 c23 36 41 70 39 76 -1 5 -83 61 -182
122 -98 62 -198 133 -221 157 -39 40 -43 50 -43 93 0 94 72 173 156 173 58 0
70 -6 288 -143 143 -90 191 -115 198 -105 27 42 78 126 78 131 0 7 -352 228
-410 258 -32 16 -68 24 -125 26 -71 4 -86 2 -132 -22z"/>
<path d="M1520 2824 c-19 -8 -48 -27 -63 -42 -75 -71 -76 -139 -8 -309 60
-147 65 -178 35 -207 -65 -66 -193 61 -229 227 -6 31 -2 31 -99 6 l-39 -10 7
-46 c15 -112 140 -282 241 -329 98 -46 202 -23 269 60 28 34 31 45 31 104 -1
57 -8 85 -50 187 -66 163 -64 215 11 215 72 0 177 -148 191 -267 3 -29 8 -53
10 -53 2 0 33 7 68 16 63 16 65 18 65 48 -1 51 -47 166 -96 239 -100 146 -234
209 -344 161z"/>
<path d="M8922 2612 l-61 -69 36 -147 c19 -81 33 -150 30 -153 -3 -3 -61 2
-129 11 -178 23 -175 23 -228 -39 -25 -29 -48 -54 -51 -54 -4 -1 -16 22 -28
49 -25 58 -31 57 -94 -8 l-38 -39 198 -486 c108 -268 200 -487 204 -487 4 0
30 21 57 48 l50 47 -169 414 c-93 228 -167 416 -165 418 6 7 420 -38 427 -45
4 -4 26 -95 49 -202 23 -107 46 -201 49 -208 5 -9 26 7 66 53 l59 67 -33 140
c-18 77 -31 141 -29 143 2 1 67 -4 146 -13 l143 -15 59 64 c32 35 59 69 60 74
0 7 -72 18 -177 29 -98 9 -197 20 -219 23 l-42 5 -48 224 c-27 123 -52 224
-55 224 -3 0 -33 -31 -67 -68z"/>
<path d="M2192 2164 c-32 -22 -54 -71 -47 -103 10 -46 59 -86 106 -86 55 0 99
47 99 103 -1 79 -94 131 -158 86z"/>
<path d="M2690 1636 c-90 -128 -125 -162 -174 -171 -34 -7 -96 13 -126 40 -14
13 -20 9 -54 -37 -21 -28 -39 -58 -40 -66 -2 -25 73 -57 136 -57 57 0 59 -3
30 -38 -8 -9 -13 -19 -11 -20 41 -34 118 -87 125 -86 10 0 339 458 333 463
-34 26 -124 86 -130 86 -4 0 -44 -52 -89 -114z"/>
<path d="M7980 1727 c-203 -85 -294 -251 -230 -419 11 -28 79 -141 151 -249
l131 -198 69 46 c38 25 69 49 69 53 0 3 -56 89 -125 191 -74 108 -131 203
-140 231 -24 81 8 148 88 187 76 37 137 24 193 -42 16 -18 81 -110 144 -205
63 -94 119 -171 123 -172 6 0 115 69 136 87 9 7 -253 387 -293 425 -59 58
-110 81 -191 85 -57 3 -80 -1 -125 -20z"/>
<path d="M2983 1531 c-21 -9 -21 -11 -6 -70 l15 -61 51 0 c63 0 129 -30 163
-76 27 -34 43 -107 27 -117 -5 -3 -91 39 -191 94 -100 56 -186 97 -193 94 -26
-17 -59 -110 -59 -169 0 -85 18 -132 73 -192 122 -133 302 -150 425 -39 72 64
102 130 102 220 0 88 -29 154 -96 215 -85 79 -243 130 -311 101z m83 -353 c63
-35 112 -67 111 -72 -8 -25 -59 -49 -102 -49 -52 0 -87 21 -122 73 -28 41 -31
110 -5 110 2 0 56 -28 118 -62z"/>
<path d="M7425 1393 c-38 -19 -72 -37 -74 -39 -2 -2 324 -651 334 -662 4 -5
155 72 152 78 -1 3 -73 144 -159 315 -86 171 -162 318 -170 327 -12 15 -19 14
-83 -19z"/>
<path d="M3510 1218 c-63 -161 -110 -303 -110 -332 0 -46 21 -102 52 -140 56
-69 182 -107 276 -83 32 9 32 8 22 -19 -6 -15 -9 -28 -8 -30 8 -7 142 -54 145
-50 7 6 204 529 201 531 -10 7 -150 57 -153 54 -1 -2 -24 -60 -50 -129 -63
-165 -80 -197 -118 -220 -41 -25 -78 -25 -127 0 -78 40 -78 81 -5 276 30 81
55 152 55 159 0 7 -28 23 -62 35 -35 13 -68 25 -74 27 -7 2 -25 -31 -44 -79z"/>
<path d="M4342 1208 c-49 -17 -117 -81 -142 -135 -17 -37 -130 -524 -130 -562
0 -4 34 -15 75 -23 79 -16 85 -14 85 33 0 14 9 9 43 -25 51 -51 117 -76 197
-76 112 0 193 47 245 141 26 47 30 64 30 134 0 63 -5 89 -22 121 -29 55 -103
119 -160 138 -58 20 -153 21 -198 2 -42 -18 -44 -10 -14 51 12 24 34 50 50 58
66 35 199 6 275 -59 l40 -34 42 48 c23 27 40 55 37 62 -9 23 -100 79 -171 105
-79 29 -226 40 -282 21z m157 -383 c49 -25 81 -72 81 -118 0 -116 -106 -178
-217 -127 -99 45 -112 185 -21 240 40 24 116 27 157 5z"/>
<path d="M6782 1124 c-205 -61 -256 -83 -324 -143 -54 -48 -104 -141 -113
-212 -15 -105 37 -251 116 -324 70 -65 125 -87 234 -92 85 -4 100 -2 284 51
106 30 196 57 198 60 3 3 -38 157 -92 343 -54 186 -100 346 -103 356 -2 9 -7
17 -11 16 -3 0 -88 -25 -189 -55z m134 -354 c34 -118 61 -216 60 -218 -13 -12
-193 -55 -236 -55 -127 0 -219 99 -220 236 0 114 59 180 205 227 50 16 99 28
109 27 17 -2 30 -35 82 -217z"/>
<path d="M5851 935 c-62 -18 -105 -42 -141 -80 l-24 -26 44 -39 c25 -22 49
-39 53 -40 5 0 23 11 40 24 84 64 230 48 265 -29 6 -14 11 -25 9 -25 -1 0 -92
-11 -202 -25 -110 -14 -206 -25 -214 -25 -11 0 -12 -11 -7 -52 14 -106 66
-182 154 -225 114 -56 273 -30 361 58 141 141 97 392 -82 469 -67 30 -180 36
-256 15z m259 -339 c0 -29 -33 -72 -70 -91 -40 -21 -109 -19 -145 3 -30 19
-63 67 -53 77 6 6 186 32 236 34 27 1 32 -2 32 -23z"/>
<path d="M4879 939 c-5 -32 -56 -565 -53 -568 3 -4 157 -22 160 -18 1 1 14
127 29 281 30 308 32 296 -36 296 -20 0 -51 3 -68 6 -17 4 -31 5 -32 3z"/>
<path d="M5310 913 c-68 -12 -105 -27 -140 -60 -91 -81 -71 -212 38 -256 21
-8 78 -23 127 -33 99 -19 133 -41 115 -74 -22 -41 -136 -49 -219 -14 -18 8
-37 14 -42 14 -9 0 -59 -92 -59 -109 0 -24 105 -46 220 -46 128 0 166 13 225
74 25 27 30 41 33 94 6 109 -44 152 -210 181 -101 17 -128 29 -128 56 0 54
115 66 235 26 39 -14 71 -24 71 -23 5 6 54 107 54 110 0 3 -22 14 -48 25 -76
33 -195 48 -272 35z"/>
<path d="M4828 265 c-54 -30 -57 -113 -6 -149 33 -23 109 -21 136 4 86 80 -23
202 -130 145z"/>
</g>
</svg>
